<?xml version="1.0" encoding="utf-8" ?>
<svg baseProfile="full" height="200mm" version="1.1" viewBox="0,0,200,200" width="200mm" xmlns="http://www.w3.org/2000/svg" xmlns:ev="http://www.w3.org/2001/xml-events" xmlns:xlink="http://www.w3.org/1999/xlink"><defs /><rect fill="#1a1a1a" height="200" width="200" x="0" y="0" /><text alignment-baseline="middle" fill="#e1ed5e" style="dominant-baseline: central; font-size:9.0px; font-family:Arial;" text-anchor="middle" x="100.0" y="100.0">2022</text><line stroke="#e1ed5e" stroke-width="0.3" x1="100.0" x2="100.0" y1="15.0" y2="10.0" /><path d="M 100.0 14.0 a86.0,86.0 0 0,1 42.46469731375804,11.215312516191453" fill="none" id="id109" stroke="none" /><text fill="#e1ed5e" style="font-size:6.75px; font-family:Arial;" text-anchor="middle"><textPath startOffset="22.20632615414155" xlink:href="#id109">January</textPath></text><path d="M 105.71112130821622 79.79150937346287 l 5.351921240178427 -18.937480816685902 a40.67920833375722,40.67920833375722 0 0,0 0.6721944393847828,0.19623198964160996 l -5.677105897286637 18.842550498125586" fill="#fff517" stroke="none" /><path d="M 106.0581310904928 79.89281104454417 l 5.767331676963758 -19.14201361200047 a40.9919683821809,40.9919683821809 0 0,0 0.6738584327099334,0.20937109521774783 l -6.09597548238441 19.039902381900202" fill="#fff917" stroke="none" /><path d="M 106.40334571778207 80.00007090966166 l 5.872605229723907 -18.342237534335418 a40.25941769499181,40.25941769499181 0 0,0 0.6581785552956317,0.21699112154228228 l -6.187466607261956 18.2384326885339" fill="#fff016" stroke="none" /><path d="M 106.74666289553966 80.11325718540242 l 5.895497167515613 -17.37781148248604 a39.35061902969511,39.35061902969511 0 0,0 0.639574972670721,0.22313514958102812 l -6.193754144249608 17.273755479732806" fill="#ffe515" stroke="none" /><path d="M 107.08798089147638 80.2323363322302 l 6.768405602704131 -18.87640042627643 a41.05317449821463,41.05317449821463 0 0,0 0.6631410653779497,0.24424045085636484 l -7.0923289938546565 18.75709670761374" fill="#fffa17" stroke="none" /><path d="M 108.09893153111575 80.62456947434976 l 0.8979771387056888 -2.1482702499421347 a23.328396016236177,23.328396016236177 0 0,0 0.3691621381378565,0.1580559617648111 l -0.9348230346338606 2.1324947602145325" fill="#ff0b01" stroke="none" /><line stroke="#e1ed5e" stroke-width="0.3" x1="143.23703022742887" x2="145.7803849466894" y1="26.81831364943548" y2="22.513508569990506" /><path d="M 143.74570117128098 25.957352633546492 a86.0,86.0 0 0,1 28.547481713284135,27.462654790039103" fill="none" id="id110" stroke="none" /><text fill="#e1ed5e" style="font-size:6.75px; font-family:Arial;" text-anchor="middle"><textPath startOffset="19.985693538727396" xlink:href="#id110">February</textPath></text><path d="M 112.77801427241765 83.33499621200491 l 11.254548796988937 -14.678109942235162 a39.496263949785856,39.496263949785856 0 0,0 0.5359594961199611,0.4183248879702893 l -11.505540848268328 14.48220666504165" fill="#ffe615" stroke="none" /><path d="M 113.06298171725822 83.55741782278167 l 6.701158524704138 -8.434854469668615 a31.77275709824108,31.77275709824108 0 0,0 0.42529590659769084,0.34389304578752583 l -6.8453578298663205 8.31825532661696" fill="#ff820b" stroke="none" /><path d="M 113.34407831869373 83.78471172551755 l 4.933626083433661 -5.995181328433177 a28.76420411194417,28.76420411194417 0 0,0 0.3796086845235663,0.3179113563271516 l -5.036092304916345 5.909368814712207" fill="#ff5808" stroke="none" /><path d="M 114.42810811169701 84.74124197986012 l 11.746111291068278 -12.422354232481755 a38.0963743273075,38.0963743273075 0 0,0 0.4726068509465377,0.45464741616465204 l -11.958201385627234 12.2183237295548" fill="#ffd513" stroke="none" /><path d="M 114.68862486808459 84.99185889309783 l 14.370193758979836 -14.68278328333522 a41.54474613170022,41.54474613170022 0 0,0 0.5067750785751767,0.5045988253351852 l -14.620804637722335 14.433248607349917" fill="#feff18" stroke="none" /><path d="M 114.94478906791727 85.2469230424477 l 9.834242550419583 -9.708088652588447 a34.81880283624452,34.81880283624452 0 0,0 0.4173874747122995,0.43015448208585993 l -9.999894288834993 9.537369974952474" fill="#ffaa0f" stroke="none" /><path d="M 115.19652480421416 85.50635884689758 l 14.503243941901228 -13.832426555282618 a41.0419587177896,41.0419587177896 0 0,0 0.48318635073222993,0.5154295097671168 l -14.739197614603922 13.580727628637446" fill="#fffa17" stroke="none" /><path d="M 115.4437574822437 85.77008943001954 l 1.8611645293851355 -1.7148809050919254 a23.530760740190644,23.530760740190644 0 0,0 0.27189946355951333,0.30023817875053366 l -1.8904076335606845 1.6825899390718428" fill="#ff0e01" stroke="none" /><path d="M 116.15771136456269 86.58626213691792 l 2.0120500247792035 -1.6703548535338302 a23.61503931881301,23.61503931881301 0 0,0 0.25695581400112705,0.31499744516793593 l -2.040504330856739 1.6354732387577933" fill="#ff0f01" stroke="none" /><path d="M 116.38621287248628 86.86637796730983 l 8.087003378294051 -6.481768946498929 a31.364022014466066,31.364022014466066 0 0,0 0.3340207399855436,0.42417241944441475 l -8.19737819887356 6.341604133101476" fill="#ff7c0b" stroke="none" /><path d="M 116.60985879189232 87.15038557335679 l 12.86052098852404 -9.949075311160996 a37.25967710760028,37.25967710760028 0 0,0 0.38807561156728543,0.5106620151106809 l -13.02987254031544 9.726228520169283" fill="#ffca12" stroke="none" /><path d="M 116.82858285166822 87.43820079747576 l 15.966601400604116 -11.918367845290605 a40.924353248761435,40.924353248761435 0 0,0 0.4165268737123693,0.568142187641356 l -16.16939088683011 11.641763213977756" fill="#fff817" stroke="none" /><path d="M 117.04232023915458 87.72973835380427 l 17.975106365836556 -12.941856222152204 a43.14940385965269,43.14940385965269 0 0,0 0.428796954690245,0.6065028831357389 l -18.195215940330684 12.630526838684672" fill="#ebff1a" stroke="none" /><path d="M 117.2510076193507 88.02491185347247 l 24.427359398824432 -16.956678035415553 a50.73591796457746,50.73591796457746 0 0,0 0.4918376956869603,0.7217111288366227 l -24.715621560180125 16.533688883308525" fill="#93ff23" stroke="none" /><path d="M 117.65298651832404 88.62581576622439 l 15.65672411344007 -10.08795108854881 a39.62524542467371,39.62524542467371 0 0,0 0.36450018609657936,0.576551759495759 l -15.828051895782604 9.816951681338844" fill="#ffe815" stroke="none" /><line stroke="#e1ed5e" stroke-width="0.3" x1="172.23445277983987" x2="176.4835382374775" y1="55.19839476539836" y2="52.563006222186495" /><path d="M 173.08426987136738 54.67131705675599 a86.0,86.0 0 0,1 12.851231095245387,41.99856678651699" fill="none" id="id111" stroke="none" /><text fill="#e1ed5e" style="font-size:6.75px; font-family:Arial;" text-anchor="middle"><textPath startOffset="22.20632615414155" xlink:href="#id111">March</textPath></text><path d="M 117.84615892207809 88.93136811851018 l 17.74794050707036 -11.007714376246774 a41.88442405314398,41.88442405314398 0 0,0 0.3747343608317256,0.6159647594414921 l -17.934790666188313 10.7005818435982" fill="#faff18" stroke="none" /><path d="M 118.03404312379186 89.2402003453031 l 17.487053840344565 -10.433444934196395 a41.363050488814736,41.363050488814736 0 0,0 0.3595440333870728,0.6145773009693082 l -17.664057548201963 10.130888220873192" fill="#fffe18" stroke="none" /><path d="M 118.21658344932153 89.55222093294921 l 18.336206279833913 -10.516386493248222 a42.137900690749646,42.137900690749646 0 0,0 0.355447958064029,0.6323022554469168 l -18.514511879190376 10.199200727866511" fill="#f7ff18" stroke="none" /><path d="M 118.3937258080291 89.86733742301442 l 17.53100825405685 -9.657412159268295 a41.01504084476953,41.01504084476953 0 0,0 0.3353309677747992,0.6213173553389106 l -17.694647321050116 9.354213820596927" fill="#fff917" stroke="none" /><path d="M 118.73160827565052 90.50648371742162 l 6.366143798745994 -3.226476281227468 a28.137081760750362,28.137081760750362 0 0,0 0.2152352595036112,0.43390114932571855 l -6.420739071203013 3.116415543402799" fill="#ff5007" stroke="none" /><path d="M 118.89224826269711 90.83032412892265 l 19.481315709214034 -9.45558983301848 a42.65478794290888,42.65478794290888 0 0,0 0.3149178744745464,0.6632973577143491 l -19.641191777530334 9.118850059663592" fill="#f1ff19" stroke="none" /><path d="M 119.04729006885535 91.15688171328212 l 19.504875349454363 -9.055562195954844 a42.50449648521348,42.50449648521348 0 0,0 0.3023844425490693,0.6662640365801037 l -19.65786210896678 8.718476150532679" fill="#f3ff19" stroke="none" /><path d="M 119.196687751892 91.48605970444005 l 18.47997807987659 -8.196071742627515 a41.21596353981221,41.21596353981221 0 0,0 0.28205318397411255,0.651017636325862 l -18.618321973693384 7.87675496171505" fill="#fffc17" stroke="none" /><path d="M 119.34039704204932 91.81776055985345 l 18.994460124082885 -8.035885738729059 a41.62437817271793,41.62437817271793 0 0,0 0.2734886421277431,0.6622744398368349 l -19.129970453096828 7.707736728438921" fill="#fdff18" stroke="none" /><path d="M 119.47837535516314 92.15188598940014 l 19.28363915865771 -7.769652031903049 a41.79005127213909,41.79005127213909 0 0,0 0.2630911585214875,0.6695383017127328 l -19.414523867060897 7.436564725294532" fill="#fbff18" stroke="none" /><path d="M 119.61058180528143 92.48833698450437 l 58.83174541584429 -22.534989046486903 a84.0,84.0 0 0,0 0.505581645993499,1.354707451882667 l -59.21093165033941 21.518958457574904" fill="#4dd2ff" stroke="none" /><path d="M 120.08093135843002 93.85539295169968 l 19.966736497552876 -6.109664319076216 a41.88057864271254,41.88057864271254 0 0,0 0.2050036433343065,0.6911703725530985 l -20.068946037998884 5.7650645597765875" fill="#faff18" stroke="none" /><path d="M 120.37134235888165 94.90015583598534 l 32.27761161088288 -8.080507720215317 a54.273695561501135,54.273695561501135 0 0,0 0.2190775805831069,0.9082180072729924 l -32.41192199172681 7.523704481282919" fill="#6dff28" stroke="none" /><path d="M 120.67395015179393 96.31383870115 l 20.583829320045457 -3.6700927720434406 a41.90845786834047,41.90845786834047 0 0,0 0.12051303605844016,0.7112747606687376 l -20.64395421762412 3.315232223058865" fill="#faff18" stroke="none" /><path d="M 120.83666639777658 97.38593545837742 l 29.03803416784315 -3.64296735511797 a50.26565631389943,50.26565631389943 0 0,0 0.10031504343611652,0.8594380307960234 l -29.096439564282853 3.1425855859970944" fill="#98ff23" stroke="none" /><path d="M 120.98425023603335 99.18683210126433 l 21.199538452221105 -0.821510606452684 a42.215449801117,42.215449801117 0 0,0 0.02188831981556856,0.7263667739535695 l -21.21053846649232 0.4564736850741155" fill="#f6ff19" stroke="none" /><line stroke="#e1ed5e" stroke-width="0.3" x1="184.98032266829074" x2="189.97916517819016" y1="98.17113171792111" y2="98.06355123074" /><path d="M 185.9800911702706 98.14961562048488 a86.0,86.0 0 0,1 -9.607161424134198,41.387399972396054" fill="none" id="id112" stroke="none" /><text fill="#e1ed5e" style="font-size:6.75px; font-family:Arial;" text-anchor="middle"><textPath startOffset="21.466115282336823" xlink:href="#id112">April</textPath></text><line stroke="#e1ed5e" stroke-width="0.3" x1="174.80103733775053" x2="179.2010983576182" y1="140.37084112569926" y2="142.7455964860345" /><path d="M 175.68104954172406 140.8457921977663 a86.0,86.0 0 0,1 -30.038265399797805,32.042727171017184" fill="none" id="id113" stroke="none" /><text fill="#e1ed5e" style="font-size:6.75px; font-family:Arial;" text-anchor="middle"><textPath startOffset="22.206326154141568" xlink:href="#id113">May</textPath></text><path d="M 118.30583269289576 110.29060199501025 l 1.401583671297845 0.7878985876249598 a22.60786223664534,22.60786223664534 0 0,0 -0.19361804259631735,0.3375893773800582 l -1.387813632549148 -0.8119078108633331" fill="#ff0000" stroke="none" /><path d="M 118.12598468904814 110.60418214915192 l 1.5498980946664964 0.9067315233029765 a22.795646446047265,22.795646446047265 0 0,0 -0.20105665107760445,0.33698251196302786 l -1.5340605678906647 -0.9332761291521083" fill="#ff0300" stroke="none" /><path d="M 117.75023020441432 111.22182372390056 l 1.371368206059316 0.8669888836220387 a22.622442751197877,22.622442751197877 0 0,0 -0.21092210805788789,0.32735579567154927 l -1.3562412346243777 -0.890466279215041" fill="#ff0000" stroke="none" /><path d="M 117.14729908036423 112.12312394758627 l 2.006411398105265 1.418530927528635 a23.457217265689376,23.457217265689376 0 0,0 -0.23593515719759547,0.3276932978754651 l -1.981696448532067 -1.4528578308552313" fill="#ff0c01" stroke="none" /><path d="M 116.93607887273984 112.41649034213515 l 1.596883457939442 1.1707366375657895 a22.980065921321682,22.980065921321682 0 0,0 -0.23662763552808966,0.31700138692541896 l -1.5764945557162602 -1.1980509040005236" fill="#ff0500" stroke="none" /><line stroke="#e1ed5e" stroke-width="0.3" x1="143.8653032363475" x2="146.44561519142675" y1="172.8068346515853" y2="177.08958963109032" /><path d="M 144.38136562736335 173.6633856474863 a86.0,86.0 0 0,1 -40.68145358897372,12.25698825130547" fill="none" id="id114" stroke="none" /><text fill="#e1ed5e" style="font-size:6.75px; font-family:Arial;" text-anchor="middle"><textPath startOffset="21.466115282336833" xlink:href="#id114">June</textPath></text><line stroke="#e1ed5e" stroke-width="0.3" x1="102.19456741930631" x2="102.32365962044197" y1="184.97166512339345" y2="189.96999836594603" /><path d="M 102.22038585953345 185.97133177190398 a86.0,86.0 0 0,1 -42.740103519485714,-10.115201625700543" fill="none" id="id115" stroke="none" /><text fill="#e1ed5e" style="font-size:6.75px; font-family:Arial;" text-anchor="middle"><textPath startOffset="22.20632615414155" xlink:href="#id115">July</textPath></text><line stroke="#e1ed5e" stroke-width="0.3" x1="58.666819895761336" x2="56.23545636021788" y1="174.27360380694188" y2="178.64263932499728" /><path d="M 58.180547188652646 175.14741091055294 a86.0,86.0 0 0,1 -31.652253787137756,-30.449443065178592" fill="none" id="id116" stroke="none" /><text fill="#e1ed5e" style="font-size:6.75px; font-family:Arial;" text-anchor="middle"><textPath startOffset="22.20632615414155" xlink:href="#id116">August</textPath></text><line stroke="#e1ed5e" stroke-width="0.3" x1="26.63291911575756" x2="22.317208475507996" y1="142.92168965132927" y2="145.44649492493687" /><path d="M 25.769776987707644 143.4266507060508 a86.0,86.0 0 0,1 -11.730757126820373,-40.83630448921669" fill="none" id="id117" stroke="none" /><text fill="#e1ed5e" style="font-size:6.75px; font-family:Arial;" text-anchor="middle"><textPath startOffset="21.46611528233685" xlink:href="#id117">September</textPath></text><line stroke="#e1ed5e" stroke-width="0.3" x1="15.007084014347285" x2="10.007500721073583" y1="101.09737516637583" y2="101.16192664675087" /><path d="M 14.007167355692545 101.11028546245083 a86.0,86.0 0 0,1 10.666146001902534,-42.60595125391555" fill="none" id="id118" stroke="none" /><text fill="#e1ed5e" style="font-size:6.75px; font-family:Arial;" text-anchor="middle"><textPath startOffset="22.20632615414155" xlink:href="#id118">October</textPath></text><line stroke="#e1ed5e" stroke-width="0.3" x1="26.266209847984243" x2="21.928928074336255" y1="57.711370442889674" y2="55.22380399835377" /><path d="M 25.398753493254645 57.213857153982495 a86.0,86.0 0 0,1 29.58750427330803,-30.492523968695096" fill="none" id="id119" stroke="none" /><text fill="#e1ed5e" style="font-size:6.75px; font-family:Arial;" text-anchor="middle"><textPath startOffset="21.46611528233685" xlink:href="#id119">November</textPath></text><line stroke="#e1ed5e" stroke-width="0.3" x1="56.762969772571076" x2="54.21961505331055" y1="26.818313649435495" y2="22.513508569990535" /><path d="M 56.25429882871897 25.957352633546506 a86.0,86.0 0 0,1 42.265352541879196,-11.944610805530505" fill="none" id="id120" stroke="none" /><text fill="#e1ed5e" style="font-size:6.75px; font-family:Arial;" text-anchor="middle"><textPath startOffset="22.20632615414155" xlink:href="#id120">December</textPath></text></svg>