<?xml version="1.0" encoding="utf-8" ?>
<svg baseProfile="full" height="200mm" version="1.1" viewBox="0,0,200,200" width="200mm" xmlns="http://www.w3.org/2000/svg" xmlns:ev="http://www.w3.org/2001/xml-events" xmlns:xlink="http://www.w3.org/1999/xlink"><defs /><rect fill="#1a1a1a" height="200" width="200" x="0" y="0" /><text alignment-baseline="middle" fill="#e1ed5e" style="dominant-baseline: central; font-size:9.0px; font-family:Arial;" text-anchor="middle" x="100.0" y="100.0">2022</text><line stroke="#e1ed5e" stroke-width="0.3" x1="100.0" x2="100.0" y1="15.0" y2="10.0" /><path d="M 100.0 14.0 a86.0,86.0 0 0,1 42.46469731375804,11.215312516191453" fill="none" id="id109" stroke="none" /><text fill="#e1ed5e" style="font-size:6.75px; font-family:Arial;" text-anchor="middle"><textPath startOffset="22.20632615414155" xlink:href="#id109">January</textPath></text><path d="M 105.71112130821622 79.79150937346287 l 4.0140583313047635 -14.203526030141632 a35.75983793867765,35.75983793867765 0 0,0 0.5909054084450506,0.17250149241830434 l -4.257953957473241 14.132326208804622" fill="#ffbb11" stroke="none" /><path d="M 106.0581310904928 79.89281104454417 l 4.325625271447835 -14.356930113313476 a35.9944148357832,35.9944148357832 0 0,0 0.5917046905728901,0.18384552763184317 l -4.572115334731444 14.280344450799111" fill="#ffbe11" stroke="none" /><path d="M 106.40334571778207 80.00007090966166 l 4.404582745326662 -13.757080510963458 a35.44498575096424,35.44498575096424 0 0,0 0.5794701177942272,0.19104218718267058 l -4.640735685363307 13.679224599521552" fill="#ffb710" stroke="none" /><path d="M 106.74666289553966 80.11325718540242 l 4.421752200834091 -13.033739816169472 a34.76336681634194,34.76336681634194 0 0,0 0.5650172711317679,0.197123431492933 l -4.645451476029132 12.955695531504333" fill="#ffae10" stroke="none" /><path d="M 107.08798089147638 80.2323363322302 l 5.076452675577596 -14.157714397458799 a36.040320765442175,36.040320765442175 0 0,0 0.582167323260172,0.21441713826886682 l -5.319402324610345 14.068233991383607" fill="#ffbe11" stroke="none" /><path d="M 108.09893153111575 80.62456947434976 l 0.6735025522951474 -1.6112498124854497 a22.746348088492805,22.746348088492805 0 0,0 0.3599514724172083,0.15411243538825842 l -0.701137782502671 1.5994178491344007" fill="#ff0801" stroke="none" /><line stroke="#e1ed5e" stroke-width="0.3" x1="143.23703022742887" x2="145.7803849466894" y1="26.81831364943548" y2="22.513508569990506" /><path d="M 143.74570117128098 25.957352633546492 a86.0,86.0 0 0,1 28.547481713284135,27.462654790039103" fill="none" id="id110" stroke="none" /><text fill="#e1ed5e" style="font-size:6.75px; font-family:Arial;" text-anchor="middle"><textPath startOffset="19.985693538727396" xlink:href="#id110">February</textPath></text><path d="M 112.77801427241765 83.33499621200491 l 8.44115848052415 -11.008904439608692 a34.872603701315796,34.872603701315796 0 0,0 0.473216989128655,0.36935336605841984 l -8.629408024812234 10.861972684327048" fill="#ffaf10" stroke="none" /><path d="M 113.06298171725822 83.55741782278167 l 5.026015891927775 -6.326325881467519 a29.079804137752124,29.079804137752124 0 0,0 0.38924924350154144,0.31474581777449484 l -5.134168533993808 6.238873966428895" fill="#ff6209" stroke="none" /><path d="M 113.34407831869373 83.78471172551755 l 3.700327787912129 -4.496517508220591 a26.82332340160917,26.82332340160917 0 0,0 0.3539943768792434,0.2964601103030842 l -3.77717970175049 4.432156240523687" fill="#ff4206" stroke="none" /><path d="M 114.42810811169701 84.74124197986012 l 8.809841134129558 -9.317038174435089 a33.822655776105115,33.822655776105115 0 0,0 0.41958897977164816,0.40364426610041254 l -8.968913357513625 9.164010821572374" fill="#ffa20e" stroke="none" /><path d="M 114.68862486808459 84.99185889309783 l 10.77796054763572 -11.012409547949389 a36.40901027380276,36.40901027380276 0 0,0 0.44412785635659124,0.44222063019802804 l -10.965924204159633 10.825253067101242" fill="#ffc312" stroke="none" /><path d="M 114.94478906791727 85.2469230424477 l 7.375897639380706 -7.281279448661823 a31.36440526012597,31.36440526012597 0 0,0 0.3759781738891376,0.38747855760728606 l -7.5001400769729525 7.153236695504423" fill="#ff810b" stroke="none" /><path d="M 115.19652480421416 85.50635884689758 l 10.877751103451045 -10.37462334825808 a36.03190868409106,36.03190868409106 0 0,0 0.4242031084992174,0.45251029944057214 l -11.054721533920725 10.185843631939454" fill="#ffbe11" stroke="none" /><path d="M 115.4437574822437 85.77008943001954 l 1.3959142240400821 -1.2861982969035985 a22.89812607058518,22.89812607058518 0 0,0 0.26458932900015436,0.2921661455887511 l -1.417847193656272 1.2619793640452983" fill="#ff0a01" stroke="none" /><path d="M 116.15771136456269 86.58626213691792 l 1.50908165545008 -1.252802781499691 a22.961336853309323,22.961336853309323 0 0,0 0.24984286166298597,0.30627780664632653 l -1.5304230091894748 1.2266408052452635" fill="#ff0b01" stroke="none" /><path d="M 116.38621287248628 86.86637796730983 l 6.065429932382332 -4.8614688956856 a28.773243858799113,28.773243858799113 0 0,0 0.30642945605215266,0.3891342907877608 l -6.148213469028449 4.7563422109448" fill="#ff5e08" stroke="none" /><path d="M 116.60985879189232 87.15038557335679 l 9.645672853209557 -7.4620247289388155 a33.19511450731145,33.19511450731145 0 0,0 0.34574143856021844,0.4549552057893619 l -9.77269023199389 7.29488474726842" fill="#ff990e" stroke="none" /><path d="M 116.82858285166822 87.43820079747576 l 11.975301298077499 -8.939037328461993 a35.943702002495016,35.943702002495016 0 0,0 0.3658339506000962,0.49899709748606835 l -12.127397861191222 8.73157778730443" fill="#ffbd11" stroke="none" /><path d="M 117.04232023915458 87.72973835380427 l 13.48172408110214 -9.70667606262205 a37.612538769966775,37.612538769966775 0 0,0 0.373774389449012,0.5286773666732002 l -13.646811090355035 9.473172195617057" fill="#ffd213" stroke="none" /><path d="M 117.2510076193507 88.02491185347247 l 18.3210553941855 -12.717880492771053 a43.30259076845603,43.30259076845603 0 0,0 0.4197784787436481,0.6159731196126588 l -18.53725833859788 12.400629349887987" fill="#e6ff1a" stroke="none" /><path d="M 117.65298651832404 88.62581576622439 l 11.74288653515369 -7.566184608395749 a34.969342636853696,34.969342636853696 0 0,0 0.3216719988028485,0.5088078524085023 l -11.871386130202495 7.362929108273041" fill="#ffb110" stroke="none" /><line stroke="#e1ed5e" stroke-width="0.3" x1="172.23445277983987" x2="176.4835382374775" y1="55.19839476539836" y2="52.563006222186495" /><path d="M 173.08426987136738 54.67131705675599 a86.0,86.0 0 0,1 12.851231095245387,41.99856678651699" fill="none" id="id111" stroke="none" /><text fill="#e1ed5e" style="font-size:6.75px; font-family:Arial;" text-anchor="middle"><textPath startOffset="22.20632615414155" xlink:href="#id111">March</textPath></text><path d="M 117.84615892207809 88.93136811851018 l 13.311344703856662 -8.256027250341877 a36.66377616615101,36.66377616615101 0 0,0 0.3280259198471358,0.5391883636204547 l -13.45148642199002 8.02567111351434" fill="#ffc612" stroke="none" /><path d="M 118.03404312379186 89.2402003453031 l 13.115673980932849 -7.825312571476532 a36.27273455591459,36.27273455591459 0 0,0 0.3152969892232408,0.5389447596032209 l -13.248430644626417 7.598388399519417" fill="#ffc112" stroke="none" /><path d="M 118.21658344932153 89.55222093294921 l 13.752556937784124 -7.887520560193551 a36.85388920468635,36.85388920468635 0 0,0 0.3108754695840705,0.5530127719729881 l -13.886290048660628 7.649624278285769" fill="#ffc912" stroke="none" /><path d="M 118.3937258080291 89.86733742301442 l 13.148640755412798 -7.243270967018646 a36.011719688848366,36.011719688848366 0 0,0 0.2944247906566767,0.5455244217106465 l -13.27137364528794 7.0158655619755415" fill="#ffbe11" stroke="none" /><path d="M 118.73160827565052 90.50648371742162 l 4.7747474984868346 -2.419927987764361 a26.35296788149075,26.35296788149075 0 0,0 0.20158763900580598,0.4063883791912344 l -4.815695150446049 2.3373800200741766" fill="#ff3c05" stroke="none" /><path d="M 118.89224826269711 90.83032412892265 l 14.611414129244897 -7.091899795102938 a37.24156598238232,37.24156598238232 0 0,0 0.2749523644795222,0.5791198011890569 l -14.731324687566177 6.839337578273341" fill="#ffce13" stroke="none" /><path d="M 119.04729006885535 91.15688171328212 l 14.629084376235696 -6.791870292192333 a37.12884409227729,37.12884409227729 0 0,0 0.26414110862930235,0.5819999196339087 l -14.743827801828344 6.539048363716361" fill="#ffcc13" stroke="none" /><path d="M 119.196687751892 91.48605970444005 l 13.860388941632658 -6.147233598185141 a36.16241611762417,36.16241611762417 0 0,0 0.24747024526844622,0.5711954457157695 l -13.964149896743786 5.907739007882769" fill="#ffc011" stroke="none" /><path d="M 119.34039704204932 91.81776055985345 l 14.246261760602648 -6.027090581378421 a36.46873605139572,36.46873605139572 0 0,0 0.23961403246495713,0.5802443856284623 l -14.347897479953803 5.780971625296656" fill="#ffc412" stroke="none" /><path d="M 119.47837535516314 92.15188598940014 l 14.46315238004215 -5.8274094610853515 a36.59299451021086,36.59299451021086 0 0,0 0.23037285254254294,0.5862737817525496 l -14.561318782466392 5.5775866744370175" fill="#ffc512" stroke="none" /><path d="M 119.61058180528143 92.48833698450437 l 44.12509961073296 -16.90173611839187 a68.2513819847934,68.2513819847934 0 0,0 0.4107934053000344,1.1007220925725003 l -44.409497604534614 16.139690888790035" fill="#39ff8d" stroke="none" /><path d="M 120.08093135843002 93.85539295169968 l 14.975490368818834 -4.582382262532267 a36.660892023973474,36.660892023973474 0 0,0 0.1794535003185287,0.6050279919603685 l -15.052149766249064 4.323924883825368" fill="#ffc612" stroke="none" /><path d="M 120.37134235888165 94.90015583598534 l 24.208916758454436 -6.060558046332793 a45.95600157178119,45.95600157178119 0 0,0 0.18550293164044152,0.7690294117241645 l -24.309652490355695 5.642943402949223" fill="#c7ff1e" stroke="none" /><path d="M 120.67395015179393 96.31383870115 l 15.438323522400923 -2.7526500871659354 a36.68180205476055,36.68180205476055 0 0,0 0.10548313057955466,0.6225674077381886 l -15.483418514500702 2.4864968911119085" fill="#ffc712" stroke="none" /><path d="M 120.83666639777658 97.38593545837742 l 21.7791626119403 -2.732305429441456 a42.94988421466258,42.94988421466258 0 0,0 0.08571497552253513,0.7343535650236745 l -21.822967940466427 2.3570081260929285" fill="#eaff1a" stroke="none" /><path d="M 120.98425023603335 99.18683210126433 l 15.900118877892305 -0.6161509757151595 a36.91205273859982,36.91205273859982 0 0,0 0.019138557547010392,0.6351155511561396 l -15.908369129894961 0.3423652771340209" fill="#ffca12" stroke="none" /><line stroke="#e1ed5e" stroke-width="0.3" x1="184.98032266829074" x2="189.97916517819016" y1="98.17113171792111" y2="98.06355123074" /><path d="M 185.9800911702706 98.14961562048488 a86.0,86.0 0 0,1 -9.607161424134198,41.387399972396054" fill="none" id="id112" stroke="none" /><text fill="#e1ed5e" style="font-size:6.75px; font-family:Arial;" text-anchor="middle"><textPath startOffset="21.466115282336823" xlink:href="#id112">April</textPath></text><line stroke="#e1ed5e" stroke-width="0.3" x1="174.80103733775053" x2="179.2010983576182" y1="140.37084112569926" y2="142.7455964860345" /><path d="M 175.68104954172406 140.8457921977663 a86.0,86.0 0 0,1 -30.038265399797805,32.042727171017184" fill="none" id="id113" stroke="none" /><text fill="#e1ed5e" style="font-size:6.75px; font-family:Arial;" text-anchor="middle"><textPath startOffset="22.206326154141568" xlink:href="#id113">May</textPath></text><path d="M 118.30583269289576 110.29060199501025 l 1.051218498986404 0.5909412242721607 a22.20593194797862,22.20593194797862 0 0,0 -0.19017583497238366,0.33158759824318573 l -1.040890667861641 -0.6089486683736615" fill="#ff0000" stroke="none" /><path d="M 118.12598468904814 110.60418214915192 l 1.162457569977621 0.6800685327816277 a22.34677422431454,22.34677422431454 0 0,0 -0.19709761679985557,0.33034694279029453 l -1.1505790774795381 -0.6999775694580265" fill="#ff0200" stroke="none" /><path d="M 117.75023020441432 111.22182372390056 l 1.0285562372430095 0.6502606812157863 a22.21686765373508,22.21686765373508 0 0,0 -0.20714069702843102,0.32148696177970665 l -1.0172106768375282 -0.6678692429169458" fill="#ff0000" stroke="none" /><path d="M 117.14729908036423 112.12312394758627 l 1.5048525617542095 1.0639293129190281 a22.84296685143997,22.84296685143997 0 0,0 -0.22975696195801779,0.31911232504791764 l -1.4863158074205889 -1.089675243418077" fill="#ff0901" stroke="none" /><path d="M 116.93607887273984 112.41649034213515 l 1.1976976231157839 0.8780781597652981 a22.485092876245123,22.485092876245123 0 0,0 -0.23153085722868832,0.31017341948976496 l -1.1824054991920034 -0.8985644587643781" fill="#ff0400" stroke="none" /><path d="M 115.07121518719521 114.62390073753431 l 0.908333330258351 0.8813739498310604 a22.265657725571582,22.265657725571582 0 0,0 -0.2692653580339783,0.27276438607981635 l -0.893027347168837 -0.8968788298915414" fill="#ff0100" stroke="none" /><path d="M 114.81725581225074 114.88116024355365 l 0.9222805217580179 0.9262581686982814 a22.30711726937354,22.30711726937354 0 0,0 -0.2744307051857808,0.26858820503120073 l -0.9061998641964428 -0.9419964766520541" fill="#ff0100" stroke="none" /><path d="M 112.63410532772338 116.77436683061366 l 0.7358563958078954 0.9770003334426169 a22.223116628453056,22.223116628453056 0 0,0 -0.3075415093509324,0.22751185633872445 l -0.7189299160383987 -0.9895221385211105" fill="#ff0000" stroke="none" /><path d="M 111.7513745106137 117.40417183066458 l 3.1700373170057388 4.694929442079836 a26.664935927026626,26.664935927026626 0 0,0 -0.3826104691090882,0.25357335581430557 l -3.0887521491566865 -4.748800818985459" fill="#ff4006" stroke="none" /><path d="M 111.45004920935366 117.60387380957326 l 0.7154451573322413 1.0999608855006835 a22.31216451818421,22.31216451818421 0 0,0 -0.32375821735302435,0.20663781240458104 l -0.6964051379322865 -1.1121131267290734" fill="#ff0200" stroke="none" /><path d="M 111.1453310114006 117.79835938074945 l 8.181851517035025 13.065877859631144 a36.416220629246574,36.416220629246574 0 0,0 -0.534140638745814,0.32811280655122804 l -7.955731678356902 -13.20477913301075" fill="#ffc312" stroke="none" /><line stroke="#e1ed5e" stroke-width="0.3" x1="143.8653032363475" x2="146.44561519142675" y1="172.8068346515853" y2="177.08958963109032" /><path d="M 144.38136562736335 173.6633856474863 a86.0,86.0 0 0,1 -40.68145358897372,12.25698825130547" fill="none" id="id114" stroke="none" /><text fill="#e1ed5e" style="font-size:6.75px; font-family:Arial;" text-anchor="middle"><textPath startOffset="21.466115282336833" xlink:href="#id114">June</textPath></text><path d="M 110.8373102113329 117.98757091392108 l 19.13737847249669 31.763873661252553 a58.08345891051148,58.08345891051148 0 0,0 -0.860830408321618,0.5085937785991518 l -18.58778019314669 -32.088586012145456" fill="#44ff2d" stroke="none" /><path d="M 110.21172684928248 118.3499491758327 l 30.635180547847472 55.049847527498095 a84.0,84.0 0 0,0 -1.2695087525254052,0.692237392960918 l -29.683048983453418 -55.56902557221878" fill="#4dd2ff" stroke="none" /><line stroke="#e1ed5e" stroke-width="0.3" x1="102.19456741930631" x2="102.32365962044197" y1="184.97166512339345" y2="189.96999836594603" /><path d="M 102.22038585953345 185.97133177190398 a86.0,86.0 0 0,1 -42.740103519485714,-10.115201625700543" fill="none" id="id115" stroke="none" /><text fill="#e1ed5e" style="font-size:6.75px; font-family:Arial;" text-anchor="middle"><textPath startOffset="22.20632615414155" xlink:href="#id115">July</textPath></text><line stroke="#e1ed5e" stroke-width="0.3" x1="58.666819895761336" x2="56.23545636021788" y1="174.27360380694188" y2="178.64263932499728" /><path d="M 58.180547188652646 175.14741091055294 a86.0,86.0 0 0,1 -31.652253787137756,-30.449443065178592" fill="none" id="id116" stroke="none" /><text fill="#e1ed5e" style="font-size:6.75px; font-family:Arial;" text-anchor="middle"><textPath startOffset="22.20632615414155" xlink:href="#id116">August</textPath></text><line stroke="#e1ed5e" stroke-width="0.3" x1="26.63291911575756" x2="22.317208475507996" y1="142.92168965132927" y2="145.44649492493687" /><path d="M 25.769776987707644 143.4266507060508 a86.0,86.0 0 0,1 -11.730757126820373,-40.83630448921669" fill="none" id="id117" stroke="none" /><text fill="#e1ed5e" style="font-size:6.75px; font-family:Arial;" text-anchor="middle"><textPath startOffset="21.46611528233685" xlink:href="#id117">September</textPath></text><line stroke="#e1ed5e" stroke-width="0.3" x1="15.007084014347285" x2="10.007500721073583" y1="101.09737516637583" y2="101.16192664675087" /><path d="M 14.007167355692545 101.11028546245083 a86.0,86.0 0 0,1 10.666146001902534,-42.60595125391555" fill="none" id="id118" stroke="none" /><text fill="#e1ed5e" style="font-size:6.75px; font-family:Arial;" text-anchor="middle"><textPath startOffset="22.20632615414155" xlink:href="#id118">October</textPath></text><line stroke="#e1ed5e" stroke-width="0.3" x1="26.266209847984243" x2="21.928928074336255" y1="57.711370442889674" y2="55.22380399835377" /><path d="M 25.398753493254645 57.213857153982495 a86.0,86.0 0 0,1 29.58750427330803,-30.492523968695096" fill="none" id="id119" stroke="none" /><text fill="#e1ed5e" style="font-size:6.75px; font-family:Arial;" text-anchor="middle"><textPath startOffset="21.46611528233685" xlink:href="#id119">November</textPath></text><line stroke="#e1ed5e" stroke-width="0.3" x1="56.762969772571076" x2="54.21961505331055" y1="26.818313649435495" y2="22.513508569990535" /><path d="M 56.25429882871897 25.957352633546506 a86.0,86.0 0 0,1 42.265352541879196,-11.944610805530505" fill="none" id="id120" stroke="none" /><text fill="#e1ed5e" style="font-size:6.75px; font-family:Arial;" text-anchor="middle"><textPath startOffset="22.20632615414155" xlink:href="#id120">December</textPath></text></svg>