<?xml version="1.0" encoding="utf-8" ?>
<svg baseProfile="full" height="200mm" version="1.1" viewBox="0,0,200,200" width="200mm" xmlns="http://www.w3.org/2000/svg" xmlns:ev="http://www.w3.org/2001/xml-events" xmlns:xlink="http://www.w3.org/1999/xlink"><defs /><rect fill="#1a1a1a" height="200" width="200" x="0" y="0" /><text alignment-baseline="middle" fill="#e1ed5e" style="dominant-baseline: central; font-size:9.0px; font-family:Arial;" text-anchor="middle" x="100.0" y="100.0">2020</text><line stroke="#e1ed5e" stroke-width="0.3" x1="100.0" x2="100.0" y1="15.0" y2="10.0" /><path d="M 100.0 14.0 a86.0,86.0 0 0,1 42.35913384403234,11.155469271406648" fill="none" id="id1" stroke="none" /><text fill="#e1ed5e" style="font-size:6.75px; font-family:Arial;" text-anchor="middle"><textPath startOffset="22.145653131862478" xlink:href="#id1">January</textPath></text><line stroke="#e1ed5e" stroke-width="0.3" x1="143.13028292997686" x2="145.6673583964461" y1="26.7553504044142" y2="22.446841604673864" /><path d="M 143.63769802327073 25.89364864446614 a86.0,86.0 0 0,1 29.32050498858742,28.57503671076993" fill="none" id="id2" stroke="none" /><text fill="#e1ed5e" style="font-size:6.75px; font-family:Arial;" text-anchor="middle"><textPath startOffset="20.669276256404974" xlink:href="#id2">February</textPath></text><line stroke="#e1ed5e" stroke-width="0.3" x1="172.87174338648825" x2="177.1583165268699" y1="56.24261187166439" y2="53.66864786411523" /><path d="M 173.72905801456457 55.72781907015455 a86.0,86.0 0 0,1 12.242430191666344,42.057860355516425" fill="none" id="id3" stroke="none" /><text fill="#e1ed5e" style="font-size:6.75px; font-family:Arial;" text-anchor="middle"><textPath startOffset="22.145653131862474" xlink:href="#id3">March</textPath></text><line stroke="#e1ed5e" stroke-width="0.3" x1="184.99686870605535" x2="189.99668451229388" y1="99.2704041080226" y2="99.22748670261217" /><path d="M 185.99683186730306 99.26182062694052 a86.0,86.0 0 0,1 -10.086455211305974,41.156179273409016" fill="none" id="id4" stroke="none" /><text fill="#e1ed5e" style="font-size:6.75px; font-family:Arial;" text-anchor="middle"><textPath startOffset="21.40746469413373" xlink:href="#id4">April</textPath></text><line stroke="#e1ed5e" stroke-width="0.3" x1="174.33088141563837" x2="178.70328620479359" y1="141.23008692659167" y2="143.65538615756765" /><path d="M 175.20536237346943 141.71514677278685 a86.0,86.0 0 0,1 -30.301960400862466,31.631185727798858" fill="none" id="id5" stroke="none" /><text fill="#e1ed5e" style="font-size:6.75px; font-family:Arial;" text-anchor="middle"><textPath startOffset="22.145653131862474" xlink:href="#id5">May</textPath></text><line stroke="#e1ed5e" stroke-width="0.3" x1="143.1302829299769" x2="145.66735839644613" y1="173.24464959558577" y2="177.55315839532614" /><path d="M 143.63769802327073 174.10635135553383 a86.0,86.0 0 0,1 -40.68552437913181,11.842963189579606" fill="none" id="id6" stroke="none" /><text fill="#e1ed5e" style="font-size:6.75px; font-family:Arial;" text-anchor="middle"><textPath startOffset="21.407464694133747" xlink:href="#id6">June</textPath></text><line stroke="#e1ed5e" stroke-width="0.3" x1="101.45913802915013" x2="101.54496967792366" y1="184.9874750549273" y2="189.98673829345242" /><path d="M 101.47630435890484 185.9873277026323 a86.0,86.0 0 0,1 -42.54439059252881,-10.42667462771756" fill="none" id="id7" stroke="none" /><text fill="#e1ed5e" style="font-size:6.75px; font-family:Arial;" text-anchor="middle"><textPath startOffset="22.145653131862474" xlink:href="#id7">July</textPath></text><path d="M 91.92203290615298 119.3841803445677 l -6.322303147126783 15.17122599945743 a37.43586369530918,37.43586369530918 0 0,0 -0.5910675872411988,-0.2522916059419731 l 6.581805809538413 -15.060459743856054" fill="#ff8d0d" stroke="none" /><path d="M 91.59046798132341 119.24265499422711 l -3.0924214436509887 7.076065446301758 a28.72229063073245,28.72229063073245 0 0,0 -0.4501009945647245,-0.20132444981527778 l 3.213435841071348 -7.021937245576625" fill="#ff0601" stroke="none" /><path d="M 91.26138138417905 119.09545874513695 l -9.252720944589278 20.218865114194074 a43.23545257880791,43.23545257880791 0 0,0 -0.672231582278799,-0.31463832346891524 l 9.598441240739566 -20.057050559154632" fill="#ffe115" stroke="none" /><path d="M 90.93487009805054 118.94263497670748 l -12.009216480543758 25.094643607730212 a48.82018005469337,48.82018005469337 0 0,0 -0.7528530923758472,-0.3682581734305913 l 12.438229822181675 -24.8847916842024" fill="#d2ff1c" stroke="none" /><path d="M 90.28995756902619 118.62028667847754 l -10.05932306860164 19.29007835550725 a42.75539251680168,42.75539251680168 0 0,0 -0.6478687659181825,-0.34495362649807165 l 10.388980650306385 -19.114554261286607" fill="#ffda14" stroke="none" /><path d="M 89.97174638481275 118.45085714620012 l -8.726702274467481 16.05614927605843 a39.27444286872428,39.27444286872428 0 0,0 -0.5895950652998304,-0.327038443925771 l 9.001041527923414 -15.903977916699512" fill="#ffa80f" stroke="none" /><line stroke="#e1ed5e" stroke-width="0.3" x1="58.13341422392154" x2="55.67067388415222" y1="173.97424548756322" y2="178.32567169271397" /><path d="M 57.64086615596768 174.84453072859336 a86.0,86.0 0 0,1 -31.369924170532247,-30.572349798747897" fill="none" id="id8" stroke="none" /><text fill="#e1ed5e" style="font-size:6.75px; font-family:Arial;" text-anchor="middle"><textPath startOffset="22.145653131862474" xlink:href="#id8">August</textPath></text><path d="M 89.65649057296885 118.27599006163327 l -21.723846144586897 38.38395459875135 a65.10502762670814,65.10502762670814 0 0,0 -0.9679180954864307,-0.5588277729826049 l 22.379556707933727 -38.00537992849257" fill="#33ff51" stroke="none" /><path d="M 88.72937992617639 117.7192867562869 l -14.714185573549445 23.1331436828826 a48.41622865650456,48.41622865650456 0 0,0 -0.6974573714534537,-0.45208344173522774 l 15.109128577259908 -22.87714639944348" fill="#d8ff1c" stroke="none" /><path d="M 88.4268655584334 117.5232005979908 l -15.288195994763882 23.14827729257614 a48.7411549577214,48.7411549577214 0 0,0 -0.6942219223949289,-0.4671034915273236 l 15.683314205255817 -22.882424126991694" fill="#d3ff1c" stroke="none" /><path d="M 87.83215693770417 117.11559508785305 l -15.743730641248964 22.145528788320842 a48.171483209765135,48.171483209765135 0 0,0 -0.6698565645573171,-0.4849244948742706 l 16.121568216180236 -21.872003522073506" fill="#dbff1b" stroke="none" /><path d="M 87.2517909369889 116.68781488649013 l -17.013963357895555 22.27182419104634 a49.02693529340462,49.02693529340462 0 0,0 -0.6644084871197666,-0.5166480582231363 l 17.39378178965055 -21.97647508120241" fill="#d0ff1d" stroke="none" /><path d="M 86.96720088162412 116.46651593811092 l -14.850673292905277 18.763340572364847 a44.92917563743396,44.92917563743396 0 0,0 -0.6006586404182248,-0.4838480823267247 l 15.170582703678765 -18.50564419624471" fill="#fff817" stroke="none" /><path d="M 86.68645165197938 116.24036423190432 l -23.147940305591487 28.236723370375998 a57.51218546028661,57.51218546028661 0 0,0 -0.7581356682785025,-0.6324637385073372 l 23.62925030803188 -27.83519744795679" fill="#68ff28" stroke="none" /><path d="M 86.13680546590413 115.77377054828092 l -17.68766302290027 20.125313640543084 a47.79331394848168,47.79331394848168 0 0,0 -0.6116064258079732,-0.5469022373098593 l 18.030534475531613 -19.818715873349845" fill="#e0ff1b" stroke="none" /><path d="M 85.60350026404147 115.28858382429668 l -30.50940019531895 32.399925736815995 a65.50369297068862,65.50369297068862 0 0,0 -0.8120196932238594,-0.7778964974798679 l 31.061092374408123 -31.871417109030546" fill="#33ff56" stroke="none" /><path d="M 85.08716467003676 114.78537596483092 l -22.07221737715627 21.883567080166646 a52.08171951640695,52.08171951640695 0 0,0 -0.6240213356709271,-0.6403008636775777 l 22.444625513978007 -21.50144352442133" fill="#a9ff21" stroke="none" /><path d="M 84.3458050057657 113.99807769240083 l -28.198484264341516 25.215258509656877 a58.82808185085704,58.82808185085704 0 0,0 -0.6666872670972523,-0.7585677278630463 l 28.62718259539736 -24.727478503982532" fill="#59ff2a" stroke="none" /><path d="M 84.1078160697243 113.72728997021213 l -23.828460656607263 20.582456785809693 a52.48703010134814,52.48703010134814 0 0,0 -0.5831194984766843,-0.6869133029724096 l 24.17827471859106 -20.17037670038773" fill="#a4ff21" stroke="none" /><path d="M 83.8745106332314 113.45245675266167 l -19.461267338009236 16.23528137732537 a46.344137148508196,46.344137148508196 0 0,0 -0.5043857121396533,-0.6152685568407663 l 19.73709986938752 -15.89881053878611" fill="#f3ff19" stroke="none" /><path d="M 83.4222238831116 112.89097897827486 l -23.31231563730933 18.127797642852293 a50.531019416094296,50.531019416094296 0 0,0 -0.5266006514992362,-0.6893371569205021 l 23.62006826616286 -17.72493957269092" fill="#bdff1f" stroke="none" /><path d="M 83.20337586046588 112.60449989151573 l -28.427577712833266 21.332584287225725 a56.54161401780685,56.54161401780685 0 0,0 -0.5759112879942605,-0.7813342691296105 l 28.789591020411354 -20.841443708827235" fill="#73ff27" stroke="none" /><path d="M 82.78059297857968 112.02048342749411 l -24.39955903830949 17.032787173990112 a50.75658448441945,50.75658448441945 0 0,0 -0.49260537343451044,-0.7187259615308917 l 24.688354148559323 -16.61142647738917" fill="#baff1f" stroke="none" /><path d="M 82.37810715431573 111.42229804090323 l -10.272808337372448 6.658710251735572 a33.24210003851289,33.24210003851289 0 0,0 -0.3062742024121222,-0.48151391698472445 l 10.385600231410459 -6.481382660072176" fill="#ff4e07" stroke="none" /><path d="M 81.99639281039703 110.81064883170644 l -28.4757249010896 17.09885462907321 a54.21502277989152,54.21502277989152 0 0,0 -0.4722549034455027,-0.801992070833876 l 28.76505351466487 -16.607511389945774" fill="#8fff24" stroke="none" /><line stroke="#e1ed5e" stroke-width="0.3" x1="26.387840678322732" x2="22.057713659400548" y1="142.50000000000003" y2="145.00000000000006" /><path d="M 25.521815274538298 143.00000000000003 a86.0,86.0 0 0,1 -11.493303480769221,-40.785679425670985" fill="none" id="id9" stroke="none" /><text fill="#e1ed5e" style="font-size:6.75px; font-family:Arial;" text-anchor="middle"><textPath startOffset="21.40746469413373" xlink:href="#id9">September</textPath></text><path d="M 81.81346652052679 110.50000000000001 l -30.061225829985236 17.355856825112127 a55.711713650224226,55.711713650224226 0 0,0 -0.4710734057982314,-0.8323415706635336 l 30.354732600804848 -16.837258484349473" fill="#7dff26" stroke="none" /><path d="M 81.4637452351635 109.86951160357371 l -28.401407220849734 15.122149629478905 a53.17637862688846,53.17637862688846 0 0,0 -0.42209872563025114,-0.8094299621991577 l 28.656814015454934 -14.632373424175244" fill="#9bff22" stroke="none" /><path d="M 80.83023694016515 108.57439118712176 l -27.12919458758975 12.13454366960471 a50.71935983565011,50.71935983565011 0 0,0 -0.3486741469551104,-0.7978346833525035 l 27.33350261656183 -11.667046916476357" fill="#baff1f" stroke="none" /><path d="M 80.5471966667186 107.91128576633889 l -33.029357602939506 13.432752195072682 a56.65637804372575,56.65637804372575 0 0,0 -0.3586654270834798,-0.9040711738483901 l 33.25508170498911 -12.863780004010728" fill="#72ff27" stroke="none" /><path d="M 80.41425534168474 107.57618678355246 l -33.82988179233068 13.086125025906698 a57.27268352736986,57.27268352736986 0 0,0 -0.34682514287084965,-0.9199948967706734 l 34.049537619015965 -12.503461848941878" fill="#6bff28" stroke="none" /><path d="M 80.28708602549918 107.23885506374661 l -11.925253450225448 4.379118248894612 a33.703871319008066,33.703871319008066 0 0,0 -0.1947760043874113,-0.544823149878042 l 11.998669624656802 -4.173760142635648" fill="#ff5507" stroke="none" /><path d="M 80.16572619554312 106.89939002012753 l -58.16514688950043 20.232857422715195 a82.58370589827379,82.58370589827379 0 0,0 -0.45426771294431906,-1.3429617752370857 l 58.50390002401711 -19.231393973003946" fill="#4be0ff" stroke="none" /><path d="M 79.83685265289637 105.86919833188381 l -35.79971150389209 10.42077426819714 a58.285545189934176,58.285545189934176 0 0,0 -0.27139278566320296,-0.9630772539000487 l 35.973322781629875 -9.804689090394096" fill="#5fff29" stroke="none" /><path d="M 79.64726062577567 105.17358676015961 l -26.14877430054068 6.64691617321095 a47.98036122875878,47.98036122875878 0 0,0 -0.19606254646102478,-0.8000020960690121 l 26.259024373518 -6.1970582525338385" fill="#ddff1b" stroke="none" /><path d="M 79.48165901384964 104.47187691870673 l -58.19387477378948 12.683084153181541 a80.55995034269401,80.55995034269401 0 0,0 -0.282889293054552,-1.3537276743429087 l 58.4030217776684 -11.682240027553222" fill="#48f6ff" stroke="none" /><path d="M 79.34024301695615 103.76489593502545 l -11.14134568349606 2.0303243212848145 a32.324831146147694,32.324831146147694 0 0,0 -0.09479669646039116,-0.546762153941766 l 11.174557197448685 -1.8387691344224562" fill="#ff3f05" stroke="none" /><path d="M 79.2786578344484 103.40968896794605 l -42.18563470111449 6.941630136551675 a63.75294146709156,63.75294146709156 0 0,0 -0.16842466973288617,-1.081407199390978 l 42.29858086298564 -6.216434755229247" fill="#31ff3f" stroke="none" /><path d="M 79.17382384314188 102.69636545807758 l -33.46955350733148 4.333303785329294 a54.74890418481872,54.74890418481872 0 0,0 -0.11267301992559822,-0.9330942375838851 l 33.53900861351674 -3.7581158708220093" fill="#88ff25" stroke="none" /><path d="M 79.0935383218832 101.97986365728391 l -20.161697547663 1.909333719801591 a41.251903694640944,41.251903694640944 0 0,0 -0.06071175714395397,-0.7055626458476759 l 20.191502927504693 -1.562950026578253" fill="#ffc512" stroke="none" /><path d="M 79.03789590574601 101.26102812881392 l -30.333369532177628 1.8247801866544624 a51.388207086059694,51.388207086059694 0 0,0 -0.045413497342559866,-0.881009716132345 l 30.36022461897676 -1.3037986771453864" fill="#b2ff20" stroke="none" /><path d="M 79.01933749520258 100.90099992219065 l -52.880678488386366 2.270923865846956 a73.92941764837926,73.92941764837926 0 0,0 -0.043566651597115855,-1.2683955258635162 l 52.91186982698033 -1.36282207541932" fill="#3fffbf" stroke="none" /><line stroke="#e1ed5e" stroke-width="0.3" x1="15.003131293944662" x2="10.003315487706104" y1="100.72959589197737" y2="100.7725132973878" /><path d="M 14.003168132696942 100.73817937305945 a86.0,86.0 0 0,1 10.791469493833604,-42.45332614584628" fill="none" id="id10" stroke="none" /><text fill="#e1ed5e" style="font-size:6.75px; font-family:Arial;" text-anchor="middle"><textPath startOffset="22.145653131862435" xlink:href="#id10">October</textPath></text><path d="M 79.00696218219943 99.45929381324524 l -51.90355216598021 -1.336851389220919 a72.92076558645385,72.92076558645385 0 0,0 0.042972252312460074,-1.2510902392374417 l 51.872955226670896 2.227647893022499" fill="#3effb3" stroke="none" /><path d="M 79.22317932658666 96.9465228501225 l -59.64749392051872 -8.766127532054142 a81.28821213891283,81.28821213891283 0 0,0 0.21474993886737392,-1.378848658740196 l 59.48822248951308 9.788764372725788" fill="#49eeff" stroke="none" /><path d="M 79.34024301695615 96.23510406497455 l -35.881681726392046 -6.538837692255713 a57.47261276464521,57.47261276464521 0 0,0 0.1852087999054878,-0.9690907028949741 l 35.7641466342044 7.153830960184002" fill="#68ff28" stroke="none" /><path d="M 79.407916724674 95.88100663000787 l -43.10685232938025 -8.622577743685634 a64.96077302201246,64.96077302201246 0 0,0 0.22811219567913876,-1.0915994338690864 l 42.95248242287675 9.361293628840128" fill="#33ff4f" stroke="none" /><path d="M 79.56144815229197 95.17655741523228 l -38.95571841044571 -9.193443473943317 a61.02583415473724,61.02583415473724 0 0,0 0.24937037024877015,-1.0175162084624876 l 38.79216051368065 9.860815507013923" fill="#40ff2d" stroke="none" /><path d="M 79.73907114497095 94.47779374421319 l -59.53276494343432 -16.225919815779708 a82.70438052260403,82.70438052260403 0 0,0 0.38509328759703754,-1.3665602238025512 l 59.2454531637627 17.245487963485274" fill="#4bdfff" stroke="none" /><path d="M 79.94057633289273 93.78553927170692 l -31.95611357158963 -9.900085671212878 a54.454519737962,54.454519737962 0 0,0 0.2842922261278297,-0.8905413492133083 l 31.78145662968454 10.447196054117578" fill="#8cff24" stroke="none" /><path d="M 80.16572619554312 93.10060997987247 l -33.48070233437368 -11.646326244660978 a56.44847449185951,56.44847449185951 0 0,0 0.3262179650290894,-0.9124897074099776 l 33.27584419930064 12.219350908451876" fill="#74ff27" stroke="none" /><path d="M 80.28708602549916 92.7611449362534 l -13.819544034196749 -5.0747279899874576 a35.721843005733525,35.721843005733525 0 0,0 0.21632011180605742,-0.5738147969408974 l 13.730393238576257 5.3112110671225" fill="#ff740a" stroke="none" /><path d="M 80.5471966667186 92.08871423366112 l -58.3584099998442 -23.73385729901662 a84.0,84.0 0 0,0 0.5546966218540859,-1.3310699622349447 l 57.94238753345363 24.732159770692828" fill="#4dd2ff" stroke="none" /><path d="M 81.29705330413844 90.45014215332179 l -18.15837238096865 -9.271794321248281 a41.388542308400986,41.388542308400986 0 0,0 0.3285302876047504,-0.6300001448242515 l 17.99653402438896 9.582140709177018" fill="#ffc712" stroke="none" /><line stroke="#e1ed5e" stroke-width="0.3" x1="26.387840678322718" x2="22.05771365940052" y1="57.49999999999999" y2="54.99999999999999" /><path d="M 25.521815274538284 56.99999999999999 a86.0,86.0 0 0,1 29.574782752854787,-30.34633250058573" fill="none" id="id11" stroke="none" /><text fill="#e1ed5e" style="font-size:6.75px; font-family:Arial;" text-anchor="middle"><textPath startOffset="21.40746469413373" xlink:href="#id11">November</textPath></text><path d="M 81.99639281039701 89.18935116829357 l -29.937133706157972 -17.976388626831216 a55.91965811120215,55.91965811120215 0 0,0 0.5012319558680988,-0.8187247308666572 l 29.62413378583448 18.487650473822416" fill="#7aff26" stroke="none" /><path d="M 82.98947788004972 87.6856937992154 l -27.109005430230155 -19.6248293446011 a54.46688067658778,54.46688067658778 0 0,0 0.5547788464900597,-0.7526640536262589 l 26.768124564156274 20.087299707496225" fill="#8cff24" stroke="none" /><path d="M 84.10781606972428 86.27271002978789 l -26.22892028887291 -22.655916643716544 a55.65900775393146,55.65900775393146 0 0,0 0.630772763641838,-0.7177036156652515 l 25.83613646127248 23.102832537193095" fill="#7dff26" stroke="none" /><path d="M 84.58840730492382 85.73525988315684 l -17.205189972126497 -15.924866979628376 a44.44397471197707,44.44397471197707 0 0,0 0.5230509083637048,-0.5554619389127889 l 16.92928323002652 16.217870378485674" fill="#fff116" stroke="none" /><path d="M 85.86807049272753 84.46653392183569 l -6.192966791700298 -6.807155352181012 a30.20272794728983,30.20272794728983 0 0,0 0.38650139451311066,-0.34561193025948955 l 6.075200370363795 6.912462812323903" fill="#ff1e03" stroke="none" /><path d="M 86.40962598614128 83.9905735841838 l -7.13069440471018 -8.399940078872552 a32.01842983469126,32.01842983469126 0 0,0 0.42207253133707645,-0.3521079171711545 l 6.9854475392111945 8.521110179955588" fill="#ff3b05" stroke="none" /><path d="M 87.25179093698888 83.31218511350988 l -7.478690925885874 -9.789846491188497 a33.31957435490218,33.31957435490218 0 0,0 0.45750474647628525,-0.3433200909553897 l 7.309533190498836 9.916785609407889" fill="#ff4f07" stroke="none" /><path d="M 87.54013794807813 83.09580414077388 l -6.73563692313291 -9.138185102756529 a32.35232274613934,32.35232274613934 0 0,0 0.4498806000182337,-0.32567886061062074 l 6.577775312740709 9.25246473474023" fill="#ff4006" stroke="none" /><line stroke="#e1ed5e" stroke-width="0.3" x1="56.869717070023135" x2="54.33264160355391" y1="26.7553504044142" y2="22.446841604673864" /><path d="M 56.362301976729285 25.89364864446614 a86.0,86.0 0 0,1 42.16139366436587,-11.88097634709845" fill="none" id="id12" stroke="none" /><text fill="#e1ed5e" style="font-size:6.75px; font-family:Arial;" text-anchor="middle"><textPath startOffset="22.145653131862474" xlink:href="#id12">December</textPath></text><path d="M 89.97174638481275 81.54914285379989 l -3.5107421072065423 -6.459370054135583 a28.35178696913727,28.35178696913727 0 0,0 0.4296121764769664,-0.22874428597190985 l 3.399341114943014 6.518684807830068" fill="#ff0000" stroke="none" /><path d="M 91.26138138417902 80.90454125486306 l -5.114721394057589 -11.176589306263057 a33.29131902847307,33.29131902847307 0 0,0 0.5217012806441995,-0.23335034705975802 l 4.922106710557771 11.262743404232662" fill="#ff4e07" stroke="none" /><path d="M 91.5904679813234 80.7573450057729 l -5.00552825468302 -11.453628222689003 a33.49963649759496,33.49963649759496 0 0,0 0.5289192598639503,-0.225764180552607 l 4.808173919648639 11.537867052901014" fill="#ff5207" stroke="none" /><path d="M 96.05791012581881 79.37332000966035 l -1.77494616317636 -9.287268346596104 a30.455357593653474,30.455357593653474 0 0,0 0.514355119797691,-0.0937326368976765 l 1.6152563098276302 9.316369157425141" fill="#ff2203" stroke="none" /><path d="M 96.76829788921471 79.25015418208739 l -1.8449273649486573 -11.845757144562434 a32.988566190745594,32.988566190745594 0 0,0 0.5602949220113372,-0.08234405872036106 l 1.6413073373296352 11.87568227658168" fill="#ff4a06" stroke="none" /><path d="M 97.48249496171623 79.15144685158666 l -0.9497443421212607 -7.865245587599093 a28.922379848797856,28.922379848797856 0 0,0 0.49342144476613214,-0.05528890206469053 l 0.8145869957543292 7.880390250170755" fill="#ff0901" stroke="none" /><path d="M 98.5590905019552 79.04949213459386 l -1.7460620672607325 -25.387359250022566 a46.4473327174467,46.4473327174467 0 0,0 0.7959207146073745,-0.04788061374529041 l 1.3099970005208743 25.41359184159255" fill="#f2ff19" stroke="none" /></svg>