<?xml version="1.0" encoding="utf-8" ?>
<svg baseProfile="full" height="200mm" version="1.1" viewBox="0,0,200,200" width="200mm" xmlns="http://www.w3.org/2000/svg" xmlns:ev="http://www.w3.org/2001/xml-events" xmlns:xlink="http://www.w3.org/1999/xlink"><defs /><rect fill="#1a1a1a" height="200" width="200" x="0" y="0" /><text alignment-baseline="middle" fill="#e1ed5e" style="dominant-baseline: central; font-size:9.0px; font-family:Arial;" text-anchor="middle" x="100.0" y="100.0">2022</text><line stroke="#e1ed5e" stroke-width="0.3" x1="100.0" x2="100.0" y1="15.0" y2="10.0" /><path d="M 100.0 14.0 a86.0,86.0 0 0,1 42.46469731375804,11.215312516191453" fill="none" id="id25" stroke="none" /><text fill="#e1ed5e" style="font-size:6.75px; font-family:Arial;" text-anchor="middle"><textPath startOffset="22.20632615414155" xlink:href="#id25">January</textPath></text><path d="M 100.36148047927253 79.00311137660856 l 0.14030692578273357 -8.149842281052866 a29.151049947059555,29.151049947059555 0 0,0 0.5016387146176848,0.012955848020207751 l -0.28057227559528625 8.146219640890298" fill="#ff5207" stroke="none" /><path d="M 100.72285384407766 79.0124445844662 l 0.2799922285338885 -8.129378380455092 a29.134198700588154,29.134198700588154 0 0,0 0.5010515691289636,0.021576334556666497 l -0.4198846300521837 8.123354319374231" fill="#ff5207" stroke="none" /><path d="M 102.52436894288641 79.15227682838746 l 1.9937652981462097 -16.46568625479644 a37.58595562231747,37.58595562231747 0 0,0 0.641619595502787,0.08330063810195233 l -2.2768996221568427 16.428927293530354" fill="#ffc512" stroke="none" /><path d="M 103.2404852339499 79.25152402106235 l 1.361518089931239 -8.717652865028946 a29.823332872807043,29.823332872807043 0 0,0 0.5065291338727937,0.08358164719810637 l -1.5113764299429078 8.692924954891215" fill="#ff5c08" stroke="none" /><path d="M 105.01212808612495 79.60689891045804 l 4.612865945715288 -18.76860286230368 a40.327156687832115,40.327156687832115 0 0,0 0.6726783110644684,0.1714806792977148 l -4.935253145464781 18.686419186837096" fill="#ffe815" stroke="none" /><path d="M 105.36241919743992 79.69619591428918 l 2.741019042869401 -10.37835939200581 a31.734222331543535,31.734222331543535 0 0,0 0.5269423957549182,0.1440332621241379 l -2.91925932784803 10.329639589055379" fill="#ff760a" stroke="none" /><path d="M 106.0581310904928 79.89281104454417 l 1.9560991120483986 -6.492374277486481 a27.780652438749875,27.780652438749875 0 0,0 0.45668036083314834,0.14189281111694702 l -2.067564845592265 6.457741331487013" fill="#ff3e05" stroke="none" /><path d="M 106.74666289553966 80.11325718540242 l 5.4622448142347535 -16.100738912399308 a38.002056109067624,38.002056109067624 0 0,0 0.6176564586962853,0.21548821043665112 l -5.738583276994312 16.00432984879045" fill="#ffcb12" stroke="none" /><path d="M 107.4271985657038 80.35727306442388 l 10.14116897303201 -26.820369912370634 a49.67360372147148,49.67360372147148 0 0,0 0.7971828909176705,0.3092945766967658 l -10.601335028949347 26.641832631783323" fill="#a5ff21" stroke="none" /><path d="M 108.09893153111575 80.62456947434976 l 3.118074730954966 -7.459507478399509 a29.084963936104977,29.084963936104977 0 0,0 0.46025742476431464,0.19705820942924865 l -3.246015913509596 7.404729741007469" fill="#ff5107" stroke="none" /><path d="M 108.76106565485865 80.91482961587045 l 7.016266474407875 -15.284286912091481 a37.81777100721231,37.81777100721231 0 0,0 0.589276127316296,0.27667304310521224 l -7.278320813023768 15.161248886346266" fill="#ffc812" stroke="none" /><path d="M 109.41281617654863 81.2277094730956 l 10.083136829957539 -20.109133169526842 a43.49548588409263,43.49548588409263 0 0,0 0.6663912581161013,0.34135148518395647 l -10.427788575662396 19.932589159030385" fill="#eeff19" stroke="none" /><path d="M 109.73455568895987 81.39251694778311 l 16.32509772896072 -31.205222818944986 a56.21753465306911,56.21753465306911 0 0,0 0.8535828283855907,0.45595438547821426 l -16.859825603874626 30.91958970696502" fill="#5dff2a" stroke="none" /><path d="M 110.36928655335952 81.73862282372117 l 4.065594744600843 -7.1599293447049215 a29.233689868369627,29.233689868369627 0 0,0 0.43544731966291644,0.2522391937284384 l -4.188238796729087 7.088885993586434" fill="#ff5307" stroke="none" /><line stroke="#e1ed5e" stroke-width="0.3" x1="143.23703022742887" x2="145.7803849466894" y1="26.81831364943548" y2="22.513508569990506" /><path d="M 143.74570117128098 25.957352633546492 a86.0,86.0 0 0,1 28.547481713284135,27.462654790039103" fill="none" id="id26" stroke="none" /><text fill="#e1ed5e" style="font-size:6.75px; font-family:Arial;" text-anchor="middle"><textPath startOffset="19.985693538727396" xlink:href="#id26">February</textPath></text><path d="M 110.68208982089419 81.91981866633111 l 2.59902620946505 -4.399032955721075 a26.109444997551726,26.109444997551726 0 0,0 0.3849749810117218,0.2319431185450995 l -2.6743632566944093 4.3536432277173605" fill="#ff2603" stroke="none" /><path d="M 111.2981086023043 82.29822771554956 l 5.543812359115983 -8.685994038752472 a31.30438488772283,31.30438488772283 0 0,0 0.45172670754858485,0.29381561618544677 l -5.692506092448848 8.589279498407498" fill="#ff700a" stroke="none" /><path d="M 111.90073688211348 82.69761687909136 l 10.460826648494368 -15.208909517669856 a39.45913927805191,39.45913927805191 0 0,0 0.5563153523363251,0.389734456083662 l -10.721073140414346 15.026590218822259" fill="#ffdd14" stroke="none" /><path d="M 112.48926042617603 83.11751280151076 l 3.3696403384248796 -4.554946244674392 a26.66586368545992,26.66586368545992 0 0,0 0.3666605096443435,0.27616109419457135 l -3.447547001827606 4.496268560973974" fill="#ff2e04" stroke="none" /><path d="M 112.77801427241765 83.33499621200491 l 6.273889154215862 -8.182365764464482 a31.31080960074755,31.31080960074755 0 0,0 0.42488387656260035,0.3316286050534862 l -6.413805585937893 8.073158770187773" fill="#ff700a" stroke="none" /><path d="M 113.34407831869373 83.78471172551755 l 8.694133138715229 -10.564826717443825 a34.6822335385463,34.6822335385463 0 0,0 0.4577104584110394,0.38331934587113603 l -8.874701134085386 10.41360621417887" fill="#ff9f0e" stroke="none" /><path d="M 113.89432698308785 84.25364557470407 l 27.058957858417326 -30.665748786278737 a61.8971313053466,61.8971313053466 0 0,0 0.7928403914507861,0.7118199316465788 l -27.5828092374641 30.19542984586286" fill="#31ff3e" stroke="none" /><path d="M 114.42810811169701 84.74124197986012 l 5.765632493439809 -6.097569436642248 a29.391833594875592,29.391833594875592 0 0,0 0.3646221501152641,0.3507662195211331 l -5.869737887167492 5.997420130358813" fill="#ff5507" stroke="none" /><path d="M 114.94478906791727 85.2469230424477 l 11.85376192200483 -11.701701581540744 a37.65657502630732,37.65657502630732 0 0,0 0.45140503050793285,0.46521256356083407 l -12.053431216215872 11.495924822429796" fill="#ffc612" stroke="none" /><path d="M 115.68641384162765 86.03803664274999 l 18.42926227222171 -16.403282939219633 a45.67195572066447,45.67195572066447 0 0,0 0.5176331937062089,0.5917442223514566 l -18.708887329505764 16.083623160665226" fill="#d4ff1c" stroke="none" /><path d="M 116.60985879189232 87.15038557335679 l 7.308054154059285 -5.6536108623950305 a30.23964129726118,30.23964129726118 0 0,0 0.31495891003350096,0.4144490065356371 l -7.404289004316899 5.5269770799783595" fill="#ff6109" stroke="none" /><path d="M 117.2510076193507 88.02491185347247 l 51.75302285805209 -35.92526443958259 a84.0,84.0 0 0,0 0.8143021373250665,1.1948879069183742 l -52.36374946104589 35.02909850939381" fill="#4dd2ff" stroke="none" /><path d="M 117.45458315368197 88.32363383020206 l 38.06229804403668 -25.46204199281641 a66.79360342708384,66.79360342708384 0 0,0 0.6310512217381843,0.9611343046430316 l -38.49494590113279 24.803089624195703" fill="#37ff78" stroke="none" /><path d="M 117.65298651832404 88.62581576622439 l 15.869552927626358 -10.225081094301553 a39.87842666929046,39.87842666929046 0 0,0 0.3668291208398203,0.5802355749646778 l -16.043209644712135 9.950397871622668" fill="#ffe315" stroke="none" /><line stroke="#e1ed5e" stroke-width="0.3" x1="172.23445277983987" x2="176.4835382374775" y1="55.19839476539836" y2="52.563006222186495" /><path d="M 173.08426987136738 54.67131705675599 a86.0,86.0 0 0,1 12.851231095245387,41.99856678651699" fill="none" id="id27" stroke="none" /><text fill="#e1ed5e" style="font-size:6.75px; font-family:Arial;" text-anchor="middle"><textPath startOffset="22.20632615414155" xlink:href="#id27">March</textPath></text><path d="M 118.03404312379186 89.2402003453031 l 15.085506437168306 -9.000589930908538 a38.56653419346624,38.56653419346624 0 0,0 0.3352356050584086,0.573026317262806 l -15.238201716697041 8.739584201291837" fill="#ffd213" stroke="none" /><path d="M 118.3937258080291 89.86733742301442 l 15.921319712351568 -8.770673332270022 a39.17726965427721,39.17726965427721 0 0,0 0.3203057092558863,0.5934778332446558 l -16.06993352082592 8.495314515692908" fill="#ffda14" stroke="none" /><path d="M 118.73160827565052 90.50648371742162 l 15.993115655919391 -8.105598924252396 a38.92987680672836,38.92987680672836 0 0,0 0.297794995521822,0.6003365392750524 l -16.130270664394622 7.829102796478394" fill="#ffd714" stroke="none" /><path d="M 119.04729006885535 91.15688171328212 l 29.865268896262428 -13.865600017617426 a53.92702765350393,53.92702765350393 0 0,0 0.3836463325946191,0.8453138396237596 l -30.099517545820394 13.349464169151604" fill="#76ff27" stroke="none" /><path d="M 119.34039704204932 91.81776055985345 l 28.83670277141822 -12.199791256978251 a52.311185436533094,52.311185436533094 0 0,0 0.3437051963579121,0.8323093954323112 l -29.042429654662328 11.701607291092637" fill="#87ff25" stroke="none" /><path d="M 119.61058180528143 92.48833698450437 l 20.247230566767488 -7.755525793408117 a42.68175560133594,42.68175560133594 0 0,0 0.2568941934620913,0.6883487187210066 l -20.377729348731204 7.405853937657778" fill="#f8ff18" stroke="none" /><path d="M 120.08093135843002 93.85539295169968 l 7.806610954743192 -2.388761548936632 a29.163905703546224,29.163905703546224 0 0,0 0.14275607254833061,0.48130250878782804 l -7.846572924403225 2.254029653402274" fill="#ff5207" stroke="none" /><path d="M 120.28053869075195 94.5502522615342 l 7.551941110481142 -2.029343234686313 a28.81984964691408,28.81984964691408 0 0,0 0.1246165744231505,0.480198495552378 l -7.585754016774595 1.8990483135850844" fill="#ff4d07" stroke="none" /><path d="M 120.45610955862082 95.25157060432595 l 10.247384395369444 -2.3787016369022855 a31.519843555103982,31.519843555103982 0 0,0 0.11813279088592066,0.5295661380290744 l -10.2868115732574 2.201957329323247" fill="#ff730a" stroke="none" /><path d="M 120.67395015179393 96.31383870115 l 9.7589903287931 -1.7400260812144308 a30.912899828041425,30.912899828041425 0 0,0 0.08889392741082093,0.524656991575374 l -9.787496117724144 1.5717833013232188" fill="#ff6b09" stroke="none" /><path d="M 120.83666639777658 97.38593545837742 l 16.157683518167314 -2.027062619004531 a37.28433970213779,37.28433970213779 0 0,0 0.07440826263861285,0.6374845539274223 l -16.190182133809515 1.7486343267522562" fill="#ffc112" stroke="none" /><path d="M 120.91429891909075 98.10471618934814 l 8.419038486051704 -0.7629453612381706 a29.45353740477054,29.45353740477054 0 0,0 0.0414109950103652,0.5053190293304399 l -8.430923964881565 0.6179124146999618" fill="#ff5608" stroke="none" /><path d="M 120.96714384426684 98.82574320788733 l 34.77977071823065 -1.9478276248469975 a55.83427168276683,55.83427168276683 0 0,0 0.04548204406680017,0.9600540654495741 l -34.80814637053095 1.3488624527744237" fill="#61ff29" stroke="none" /><line stroke="#e1ed5e" stroke-width="0.3" x1="184.98032266829074" x2="189.97916517819016" y1="98.17113171792111" y2="98.06355123074" /><path d="M 185.9800911702706 98.14961562048488 a86.0,86.0 0 0,1 -9.607161424134198,41.387399972396054" fill="none" id="id28" stroke="none" /><text fill="#e1ed5e" style="font-size:6.75px; font-family:Arial;" text-anchor="middle"><textPath startOffset="21.466115282336823" xlink:href="#id28">April</textPath></text><path d="M 120.9904718944345 100.63252640178507 l 6.664754067203326 0.2008355472002648 a27.66777936747479,27.66777936747479 0 0,0 -0.018442376185149212,0.47591578248230104 l -6.660309558166973 -0.3155285766965721" fill="#ff3d05" stroke="none" /><path d="M 120.9764740272857 100.99374915477107 l 2.5340749376851655 0.12005043479545273 a23.536917006269352,23.536917006269352 0 0,0 -0.022655570550193953,0.40453043132516114 l -2.531633016247442 -0.16365258245603717" fill="#ff0000" stroke="none" /><path d="M 120.95626037817324 101.35467743843564 l 8.079293582045441 0.5222705070745498 a29.09615657379726,29.09615657379726 0 0,0 -0.03661050411052274,0.4995212414071431 l -8.069106519270582 -0.6612648849784631" fill="#ff5107" stroke="none" /><path d="M 120.8583938346157 102.4346265915055 l 23.565287266378853 2.750579717215756 a44.72527034045589,44.72527034045589 0 0,0 -0.09583665065939154,0.7639124002770519 l -23.514449106472615 -3.1558098717802023" fill="#dfff1b" stroke="none" /><path d="M 120.76222939487914 103.15116336523771 l 35.90561911655038 5.4495338344618425 a57.31681295427412,57.31681295427412 0 0,0 -0.1564428173400557,0.9741695729128576 l -35.80649454484904 -6.066782637067905" fill="#52ff2b" stroke="none" /><path d="M 120.70491114924044 103.5080841355445 l 23.163183704198865 3.924595314401235 a44.49330814713594,44.49330814713594 0 0,0 -0.13444089019212072,0.7540159089245054 l -23.092196371667555 -4.322729974058959" fill="#e2ff1b" stroke="none" /><path d="M 120.64145759157962 103.86396538481128 l 12.983982175830281 2.430528825875205 a34.20951412867592,34.20951412867592 0 0,0 -0.11333134241914043,0.5778740733725226 l -12.940220900435477 -2.6536666263156725" fill="#ff980e" stroke="none" /><path d="M 120.49622156327973 104.57218783832717 l 15.998530586492294 3.5688669129980037 a37.39175988018435,37.39175988018435 0 0,0 -0.14554196626032995,0.6269909814623514 l -15.934728054301411 -3.84372655180892" fill="#ffc312" stroke="none" /><line stroke="#e1ed5e" stroke-width="0.3" x1="174.80103733775053" x2="179.2010983576182" y1="140.37084112569926" y2="142.7455964860345" /><path d="M 175.68104954172406 140.8457921977663 a86.0,86.0 0 0,1 -30.038265399797805,32.042727171017184" fill="none" id="id29" stroke="none" /><text fill="#e1ed5e" style="font-size:6.75px; font-family:Arial;" text-anchor="middle"><textPath startOffset="22.206326154141568" xlink:href="#id29">May</textPath></text><line stroke="#e1ed5e" stroke-width="0.3" x1="143.8653032363475" x2="146.44561519142675" y1="172.8068346515853" y2="177.08958963109032" /><path d="M 144.38136562736335 173.6633856474863 a86.0,86.0 0 0,1 -40.68145358897372,12.25698825130547" fill="none" id="id30" stroke="none" /><text fill="#e1ed5e" style="font-size:6.75px; font-family:Arial;" text-anchor="middle"><textPath startOffset="21.466115282336833" xlink:href="#id30">June</textPath></text><line stroke="#e1ed5e" stroke-width="0.3" x1="102.19456741930631" x2="102.32365962044197" y1="184.97166512339345" y2="189.96999836594603" /><path d="M 102.22038585953345 185.97133177190398 a86.0,86.0 0 0,1 -42.740103519485714,-10.115201625700543" fill="none" id="id31" stroke="none" /><text fill="#e1ed5e" style="font-size:6.75px; font-family:Arial;" text-anchor="middle"><textPath startOffset="22.20632615414155" xlink:href="#id31">July</textPath></text><line stroke="#e1ed5e" stroke-width="0.3" x1="58.666819895761336" x2="56.23545636021788" y1="174.27360380694188" y2="178.64263932499728" /><path d="M 58.180547188652646 175.14741091055294 a86.0,86.0 0 0,1 -31.652253787137756,-30.449443065178592" fill="none" id="id32" stroke="none" /><text fill="#e1ed5e" style="font-size:6.75px; font-family:Arial;" text-anchor="middle"><textPath startOffset="22.20632615414155" xlink:href="#id32">August</textPath></text><line stroke="#e1ed5e" stroke-width="0.3" x1="26.63291911575756" x2="22.317208475507996" y1="142.92168965132927" y2="145.44649492493687" /><path d="M 25.769776987707644 143.4266507060508 a86.0,86.0 0 0,1 -11.730757126820373,-40.83630448921669" fill="none" id="id33" stroke="none" /><text fill="#e1ed5e" style="font-size:6.75px; font-family:Arial;" text-anchor="middle"><textPath startOffset="21.46611528233685" xlink:href="#id33">September</textPath></text><line stroke="#e1ed5e" stroke-width="0.3" x1="15.007084014347285" x2="10.007500721073583" y1="101.09737516637583" y2="101.16192664675087" /><path d="M 14.007167355692545 101.11028546245083 a86.0,86.0 0 0,1 10.666146001902534,-42.60595125391555" fill="none" id="id34" stroke="none" /><text fill="#e1ed5e" style="font-size:6.75px; font-family:Arial;" text-anchor="middle"><textPath startOffset="22.20632615414155" xlink:href="#id34">October</textPath></text><line stroke="#e1ed5e" stroke-width="0.3" x1="26.266209847984243" x2="21.928928074336255" y1="57.711370442889674" y2="55.22380399835377" /><path d="M 25.398753493254645 57.213857153982495 a86.0,86.0 0 0,1 29.58750427330803,-30.492523968695096" fill="none" id="id35" stroke="none" /><text fill="#e1ed5e" style="font-size:6.75px; font-family:Arial;" text-anchor="middle"><textPath startOffset="21.46611528233685" xlink:href="#id35">November</textPath></text><line stroke="#e1ed5e" stroke-width="0.3" x1="56.762969772571076" x2="54.21961505331055" y1="26.818313649435495" y2="22.513508569990535" /><path d="M 56.25429882871897 25.957352633546506 a86.0,86.0 0 0,1 42.265352541879196,-11.944610805530505" fill="none" id="id36" stroke="none" /><text fill="#e1ed5e" style="font-size:6.75px; font-family:Arial;" text-anchor="middle"><textPath startOffset="22.20632615414155" xlink:href="#id36">December</textPath></text></svg>