<?xml version="1.0" encoding="utf-8" ?>
<svg baseProfile="full" height="200mm" version="1.1" viewBox="0,0,200,200" width="200mm" xmlns="http://www.w3.org/2000/svg" xmlns:ev="http://www.w3.org/2001/xml-events" xmlns:xlink="http://www.w3.org/1999/xlink"><defs /><rect fill="#1a1a1a" height="200" width="200" x="0" y="0" /><text alignment-baseline="middle" fill="#e1ed5e" style="dominant-baseline: central; font-size:9.0px; font-family:Arial;" text-anchor="middle" x="100.0" y="100.0">2021</text><line stroke="#e1ed5e" stroke-width="0.3" x1="100.0" x2="100.0" y1="15.0" y2="10.0" /><path d="M 100.0 14.0 a86.0,86.0 0 0,1 42.46469731375804,11.215312516191453" fill="none" id="id13" stroke="none" /><text fill="#e1ed5e" style="font-size:6.75px; font-family:Arial;" text-anchor="middle"><textPath startOffset="22.20632615414155" xlink:href="#id13">January</textPath></text><path d="M 101.44485096284872 79.0497635885617 l 0.19917550609892057 -2.8880307017362363 a23.8948907088871,23.8948907088871 0 0,0 0.4100930016951216,0.03183110964840056 l -0.24885869715638334 2.884174329899371" fill="#ff1402" stroke="none" /><path d="M 102.16513564639614 79.11191278185805 l 0.3237749883852576 -3.123610387968641 a24.140345856578456,24.140345856578456 0 0,0 0.41295314383209636,0.04640009730432007 l -0.37749483572707926 3.11757433719372" fill="#ff1802" stroke="none" /><path d="M 104.66035177308747 79.52364482259891 l 0.6627188327834379 -2.911811567785625 a23.986275750431634,23.986275750431634 0 0,0 0.4018001736660509,0.09509311946379939 l -0.7127426934120125 2.899972536180957" fill="#ff1602" stroke="none" /><path d="M 105.01212808612495 79.60689891045804 l 0.49910945447288163 -2.030752084725927 a23.09118728887752,23.09118728887752 0 0,0 0.3851732217620538,0.09818923046668028 l -0.5339915649199605 2.021859858090379" fill="#ff0901" stroke="none" /><path d="M 105.71112130821622 79.79150937346287 l 1.7251661381165002 -6.104406096433536 a27.34349840342683,27.34349840342683 0 0,0 0.4518314965549029,0.1319020038798048 l -1.8299878523948303 6.073805763635027" fill="#ff4606" stroke="none" /><path d="M 106.74666289553966 80.11325718540242 l 0.9784476834937429 -2.8841128926188064 a24.045565144058536,24.045565144058536 0 0,0 0.3908182907683838,0.13634882773079032 l -1.0279479783254004 2.8668432117158082" fill="#ff1702" stroke="none" /><path d="M 108.43124777332544 80.76684994638697 l 0.6031926399623873 -1.3759878570210513 a22.502392739457356,22.502392739457356 0 0,0 0.3534138810836348,0.15856650667486222 l -0.6267886395128023 1.3654010198296578" fill="#ff0000" stroke="none" /><path d="M 108.76106565485865 80.91482961587045 l 0.9795730713802681 -2.1339092420371943 a23.34800597431632,23.34800597431632 0 0,0 0.36380839416683136,0.1708129191993049 l -1.0161596768466974 2.116731340197887" fill="#ff0c01" stroke="none" /><path d="M 109.41281617654863 81.2277094730956 l 0.9695618330557726 -1.9336292213234982 a23.16309318192134,23.16309318192134 0 0,0 0.35488010982321866,0.18178337586969964 l -1.0027024304677468 1.916653320141298" fill="#ff0a01" stroke="none" /><line stroke="#e1ed5e" stroke-width="0.3" x1="143.23703022742887" x2="145.7803849466894" y1="26.81831364943548" y2="22.513508569990506" /><path d="M 143.74570117128098 25.957352633546492 a86.0,86.0 0 0,1 28.547481713284135,27.462654790039103" fill="none" id="id14" stroke="none" /><text fill="#e1ed5e" style="font-size:6.75px; font-family:Arial;" text-anchor="middle"><textPath startOffset="19.985693538727396" xlink:href="#id14">February</textPath></text><path d="M 113.06298171725822 83.55741782278167 l 2.2266782788416126 -2.802755249493284 a24.579599579007017,24.579599579007017 0 0,0 0.32901151934783507,0.26603776742845053 l -2.2745931967539392 2.764011384800704" fill="#ff1e03" stroke="none" /><path d="M 113.6212207817346 84.01681056812373 l 4.202344566095436 -4.931046220760678 a27.478805189498292,27.478805189498292 0 0,0 0.3573634334775934,0.30990204799401905 l -4.286601798219794 4.857979179346987" fill="#ff4806" stroke="none" /><path d="M 114.42810811169701 84.74124197986012 l 5.330497619958104 -5.637383132992449 a28.75849814490709,28.75849814490709 0 0,0 0.35676526929949914,0.3432079064013658 l -5.426746132870021 5.544792139828781" fill="#ff5a08" stroke="none" /><path d="M 114.68862486808459 84.99185889309783 l 5.273198720365142 -5.387904667096049 a28.538974827267694,28.538974827267694 0 0,0 0.34812684050818826,0.3466318732207005 l -5.365161361040652 5.2963369432252305" fill="#ff5708" stroke="none" /><path d="M 115.19652480421416 85.50635884689758 l 4.854295315304193 -4.6297699808113055 a27.708125899489794,27.708125899489794 0 0,0 0.32620734139573515,0.3479752476518436 l -4.933269978670391 4.545525316281407" fill="#ff4b07" stroke="none" /><path d="M 115.4437574822437 85.77008943001954 l 1.9161936703853117 -1.7655848711491278 a23.60558786450494,23.60558786450494 0 0,0 0.27276409582471706,0.30119292729323127 l -1.9463014068260645 1.7323391565863475" fill="#ff1001" stroke="none" /><path d="M 115.68641384162765 86.03803664274999 l 4.407861028635385 -3.9232927797901214 a26.900971537273833,26.900971537273833 0 0,0 0.30488810016818535,0.3485398037294992 l -4.474740992381419 3.8468374198576747" fill="#ff4006" stroke="none" /><path d="M 115.9244219780498 86.31012108654704 l 5.994909958924984 -5.1536935876140975 a28.905662717990985,28.905662717990985 0 0,0 0.32111353915373453,0.3800971459339431 l -6.082734111565835 5.049737492051047" fill="#ff5c08" stroke="none" /><path d="M 116.60985879189232 87.15038557335679 l 4.554534921141214 -3.5234506423325795 a26.758341148008572,26.758341148008572 0 0,0 0.27869966708383764,0.36673609307456423 l -4.614510528449165 3.4445297733769817" fill="#ff3e05" stroke="none" /><path d="M 117.04232023915458 87.72973835380427 l 3.010103685025368 -2.1672377516168218 a24.709129772148238,24.709129772148238 0 0,0 0.24554683614645217,0.3473085861238513 l -3.0469631409757034 2.115102665161177" fill="#ff2003" stroke="none" /><path d="M 117.2510076193507 88.02491185347247 l 6.185166118374904 -4.293541055849514 a28.52932763997943,28.52932763997943 0 0,0 0.2765653865914565,0.40582557844670886 l -6.2581559706350935 4.186437454132399" fill="#ff5608" stroke="none" /><path d="M 117.65298651832404 88.62581576622439 l 5.644099368027873 -3.636609928809957 a27.714222922311397,27.714222922311397 0 0,0 0.25493443143230127,0.40324504788976734 l -5.70586139570613 3.5389172332059835" fill="#ff4b07" stroke="none" /><line stroke="#e1ed5e" stroke-width="0.3" x1="172.23445277983987" x2="176.4835382374775" y1="55.19839476539836" y2="52.563006222186495" /><path d="M 173.08426987136738 54.67131705675599 a86.0,86.0 0 0,1 12.851231095245387,41.99856678651699" fill="none" id="id15" stroke="none" /><text fill="#e1ed5e" style="font-size:6.75px; font-family:Arial;" text-anchor="middle"><textPath startOffset="22.20632615414155" xlink:href="#id15">March</textPath></text><path d="M 118.03404312379186 89.2402003453031 l 5.5026904631999765 -3.2831155243125485 a27.407686780716894,27.407686780716894 0 0,0 0.23823847937939852,0.4072267873971267 l -5.558388617049702 3.1879093245615264" fill="#ff4706" stroke="none" /><path d="M 120.53481517161879 95.60439243477599 l 7.426011550435403 -1.5895849209127109 a28.594236483544154,28.594236483544154 0 0,0 0.09888255172419332,0.48218643963063357 l -7.452273398074593 1.4615228251186654" fill="#ff5708" stroke="none" /><path d="M 120.67395015179393 96.31383870115 l 7.745446304573167 -1.3810115725639809 a28.86760010553293,28.86760010553293 0 0,0 0.08301241108341652,0.4899439492774835 l -7.768070577176806 1.2474818349706596" fill="#ff5b08" stroke="none" /><path d="M 120.87857604477298 97.74499172005257 l 9.794944041632048 -1.0579112228791925 a30.8519086949787,30.8519086949787 0 0,0 0.05248185032257526,0.5284850705741163 l -9.811703017636852 0.8891506216006413" fill="#ff760a" stroke="none" /><path d="M 120.94382443527127 98.46500227214037 l 2.1089755388572926 -0.15456931804707236 a23.114632236957515,23.114632236957515 0 0,0 0.025667598234101634,0.3970663839336672 l -2.11132372809581 0.11824386986036992" fill="#ff0901" stroke="none" /><path d="M 120.96714384426684 98.82574320788733 l 10.103315610034448 -0.5658322881771473 a31.119147814628935,31.119147814628935 0 0,0 0.025349349236036885,0.5350846974866503 l -10.111558567503982 0.39183648406749716" fill="#ff7a0b" stroke="none" /><line stroke="#e1ed5e" stroke-width="0.3" x1="184.98032266829074" x2="189.97916517819016" y1="98.17113171792111" y2="98.06355123074" /><path d="M 185.9800911702706 98.14961562048488 a86.0,86.0 0 0,1 -9.607161424134198,41.387399972396054" fill="none" id="id16" stroke="none" /><text fill="#e1ed5e" style="font-size:6.75px; font-family:Arial;" text-anchor="middle"><textPath startOffset="21.466115282336823" xlink:href="#id16">April</textPath></text><path d="M 120.99513854157772 99.54816195383933 l 5.037623457319178 -0.1084150950345287 a26.038789927211074,26.038789927211074 0 0,0 0.0057868022501711466,0.44819421155558314 l -5.0387432666870655 0.021684625418482827" fill="#ff3304" stroke="none" /><path d="M 120.89721153311464 102.0752229133903 l 3.107378742530434 0.3085820113780496 a24.12266320746829,24.12266320746829 0 0,0 -0.04458982225615108,0.4128463753665961 l -3.1016066187732307 -0.3620247086294371" fill="#ff1802" stroke="none" /><path d="M 120.81339534386255 102.79330883721812 l 15.165994060225596 2.0353865639763415 a36.301966354021744,36.301966354021744 0 0,0 -0.08844878849842529,0.618610620752453 l -15.12871122071057 -2.296142656709204" fill="#ffbf11" stroke="none" /><path d="M 120.64145759157962 103.86396538481128 l 15.118173725095607 2.830037544401071 a36.380776615141734,36.380776615141734 0 0,0 -0.1205244317863239,0.6145514810870973 l -15.067219360333619 -3.089852752556113" fill="#ffc011" stroke="none" /><path d="M 120.49622156327973 104.57218783832717 l 6.083567991337093 1.3570899152193294 a27.233096545314474,27.233096545314474 0 0,0 -0.10600085236060104,0.4566488976694164 l -6.059306573045939 -1.4616074702373107" fill="#ff4406" stroke="none" /><path d="M 120.32669344350535 105.2749913415812 l 15.061216291541884 3.908544483753696 a36.56010784545172,36.56010784545172 0 0,0 -0.16332257362542418,0.6077840539489032 l -14.991705641574683 -4.167219470878147" fill="#ffc212" stroke="none" /><path d="M 119.79798401119884 107.00284435728193 l 14.352644652710888 5.076746024315171 a36.224051981072265,36.224051981072265 0 0,0 -0.21299007560704658,0.5860572124730344 l -14.263130316098614 -5.323051033794337" fill="#ffbe11" stroke="none" /><path d="M 119.54520255179757 107.68017299344265 l 7.791090366903061 3.0614633778690044 a29.371000365504877,29.371000365504877 0 0,0 -0.18894977933451806,0.4689578566496543 l -7.737237973311151 -3.195120602361472" fill="#ff6209" stroke="none" /><path d="M 119.12269723197855 108.67885076344098 l 13.748715424699169 6.239865010279064 a36.09844664778022,36.09844664778022 0 0,0 -0.26167142249739284,0.5636169646768049 l -13.639269385361946 -6.475602042234699" fill="#ffbc11" stroke="none" /><path d="M 118.81262510543309 109.33194174019688 l 6.8050666138456 3.375631248837563 a28.596302913062686,28.596302913062686 0 0,0 -0.2225355172022616,0.4390836873900494 l -6.74595242685707 -3.4922691479303065" fill="#ff5708" stroke="none" /><line stroke="#e1ed5e" stroke-width="0.3" x1="174.80103733775053" x2="179.2010983576182" y1="140.37084112569926" y2="142.7455964860345" /><path d="M 175.68104954172406 140.8457921977663 a86.0,86.0 0 0,1 -30.038265399797805,32.042727171017184" fill="none" id="id17" stroke="none" /><text fill="#e1ed5e" style="font-size:6.75px; font-family:Arial;" text-anchor="middle"><textPath startOffset="22.206326154141568" xlink:href="#id17">May</textPath></text><path d="M 118.48025628344425 109.97397251340804 l 13.939688173165425 7.523384121527929 a36.84033506606305,36.84033506606305 0 0,0 -0.30599159615391314,0.5554636282866051 l -13.808120167560004 -7.762218268212339" fill="#ffc612" stroke="none" /><path d="M 117.94076556474637 110.91462005526583 l 18.199096752854913 11.071780949902934 a42.302381463639406,42.302381463639406 0 0,0 -0.38381426167037247,0.6188307989340798 l -18.00581785151658 -11.383408080202287" fill="#f4ff19" stroke="none" /><path d="M 117.55443506779139 111.5257021239791 l 2.970583350370083 1.9503936582748196 a24.55364613653844,24.55364613653844 0 0,0 -0.2350098392518225,0.35130782312776226 l -2.9365704057075392 -2.0012383956083886" fill="#ff1e03" stroke="none" /><path d="M 117.14729908036423 112.12312394758627 l 8.301419387741834 5.869095518006924 a31.166604450388782,31.166604450388782 0 0,0 -0.31347698395040857,0.43539211323529936 l -8.199162611415822 -6.011121236693355" fill="#ff7b0b" stroke="none" /><path d="M 116.93607887273984 112.41649034213515 l 1.6001352228261598 1.1731206313824347 a22.984097968121546,22.984097968121546 0 0,0 -0.23666915384678627,0.31705700749813975 l -1.5797048022842815 -1.2004905183898895" fill="#ff0701" stroke="none" /><path d="M 116.71984013943494 112.70617746262583 l 5.095235693448202 3.872104541368313 a27.39957970112676,27.39957970112676 0 0,0 -0.28860001147521114,0.3730544185047604 l -5.027828864754922 -3.959236953986326" fill="#ff4706" stroke="none" /><path d="M 116.498646956653 112.99209946851258 l 6.42310052350911 5.05796391164276 a29.175525626318073,29.175525626318073 0 0,0 -0.31409827383310024,0.3918858914242293 l -6.335084337621155 -5.16777763664524" fill="#ff5f08" stroke="none" /><path d="M 116.0416608686014 113.55231037782055 l 4.252517315867835 3.5926102056240445 a26.566933771054746,26.566933771054746 0 0,0 -0.2981284257564804,0.34679071198595685 l -4.190046380540576 -3.6652780167715293" fill="#ff3b05" stroke="none" /><path d="M 115.56566222782051 114.09645910891815 l 8.528173973476301 7.723221404354051 a32.505559533658115,32.505559533658115 0 0,0 -0.37915969370849806,0.41150296257159613 l -8.393967871772082 -7.868875621726983" fill="#ff8d0d" stroke="none" /><path d="M 115.07121518719521 114.62390073753431 l 6.239930154630916 6.054728703495605 a29.694622936482396,29.694622936482396 0 0,0 -0.3591060895314584,0.36377257276523267 l -6.134783440043922 -6.161241770241502" fill="#ff6709" stroke="none" /><path d="M 114.81725581225074 114.88116024355365 l 6.788636783174159 6.817915077242087 a30.62130736305364,30.62130736305364 0 0,0 -0.3767150578838262,0.368694972148781 l -6.670271772914538 -6.93376015231344" fill="#ff730a" stroke="none" /><path d="M 114.29624159901734 115.38237550388516 l 3.2615147426975395 3.509303066554177 a25.790896203192045,25.790896203192045 0 0,0 -0.3277905626802526,0.2994289071691835 l -3.2006246305504233 -3.5649247403099436" fill="#ff3004" stroke="none" /><path d="M 113.48314897796784 116.09983520530334 l 2.433843276700742 2.906181318210375 a24.79071008517618,24.79071008517618 0 0,0 -0.32951560568385985,0.2711689101695973 l -2.383457542472191 -2.9476453472371507" fill="#ff2103" stroke="none" /><path d="M 112.34349029814194 116.9893568818739 l 4.8641201720073575 6.694887063750059 a29.275335512479042,29.275335512479042 0 0,0 -0.4102348194941739,0.2926916512990799 l -4.748158024664299 -6.777622976893358" fill="#ff6108" stroke="none" /><path d="M 111.45004920935366 117.60387380957326 l 5.062059853539912 7.782661999865212 a30.284087341519708,30.284087341519708 0 0,0 -0.4394339295886309,0.28046752496024385 l -4.92734412190435 -7.868643953649264" fill="#ff6f0a" stroke="none" /><line stroke="#e1ed5e" stroke-width="0.3" x1="143.8653032363475" x2="146.44561519142675" y1="172.8068346515853" y2="177.08958963109032" /><path d="M 144.38136562736335 173.6633856474863 a86.0,86.0 0 0,1 -40.68145358897372,12.25698825130547" fill="none" id="id18" stroke="none" /><text fill="#e1ed5e" style="font-size:6.75px; font-family:Arial;" text-anchor="middle"><textPath startOffset="21.466115282336833" xlink:href="#id18">June</textPath></text><path d="M 110.5260780823613 118.17145234162733 l 5.371885759415592 9.273631194648065 a31.717154106690906,31.717154106690906 0 0,0 -0.4747774525327924,0.2695910284784869 l -5.211459539961601 -9.364725388921181" fill="#ff820c" stroke="none" /><path d="M 109.89434966115114 118.52300852407294 l 3.5361382351002675 6.619931669510251 a28.50518280435079,28.50518280435079 0 0,0 -0.43478425606565996,0.2274585736005776 l -3.421663076508112 -6.679819662055546" fill="#ff5608" stroke="none" /><path d="M 109.57404056367764 118.69057910512821 l 6.8484121607316695 13.369568301213558 a36.021521417089275,36.021521417089275 0 0,0 -0.5542958992978168,0.2779354709020377 l -6.617262353751093 -13.485471613024897" fill="#ffbb11" stroke="none" /><path d="M 108.92500713936063 119.00905698771935 l 3.241113078208345 6.903132092252711 a28.626142318946222,28.626142318946222 0 0,0 -0.4478382814043092,0.2055805899120959 l -3.1218068010366165 -6.95789975249888" fill="#ff5808" stroke="none" /><path d="M 108.2653958097858 119.30500536409082 l 4.082381701817633 9.534982046298154 a31.37216096011644,31.37216096011644 0 0,0 -0.4982624313065888,0.20827373669643381 l -3.917647811013583 -9.603840826014562" fill="#ff7e0b" stroke="none" /><path d="M 107.93186726928326 119.44442032107085 l 2.022685164189029 4.958471842058396 a26.355156233193984,26.355156233193984 0 0,0 -0.4215305483977951,0.1677357046065447 l -1.9370335397493676 -4.9925543910710095" fill="#ff3805" stroke="none" /><path d="M 107.2578585660854 119.70592522655815 l 3.08187238698226 8.367639884779763 a29.917137133127472,29.917137133127472 0 0,0 -0.4847722175410044,0.17382206984083812 l -2.937380608811521 -8.419449495660562" fill="#ff6a09" stroke="none" /><path d="M 106.57524785965236 119.94407469862006 l 2.9977389683400273 9.092756834066892 a30.57416658335202,30.57416658335202 0 0,0 -0.5012396641086644,0.16048111182070562 l -2.8407779591404227 -9.143010792547305" fill="#ff730a" stroke="none" /><path d="M 105.88484417918355 120.15858648285463 l 3.761834472345508 12.886197703110918 a34.424063834807555,34.424063834807555 0 0,0 -0.5702408988241424,0.16115577399008468 l -3.5394624054167596 -12.949042270439522" fill="#ffa60f" stroke="none" /><path d="M 105.18746579009965 120.34920634021253 l 1.735982715627935 6.809851267024298 a28.02763902515997,28.02763902515997 0 0,0 -0.4685243150564474,0.11515187750092336 l -1.6185051158282764 -6.838724402839252" fill="#ff4f07" stroke="none" /><path d="M 104.83641907484287 120.43548508189849 l 2.405502455716926 10.164050878876859 a31.444825146112194,31.444825146112194 0 0,0 -0.5277936795175809,0.12012412310950892 l -2.2301886268064828 -10.203951735564052" fill="#ff7f0b" stroke="none" /><path d="M 103.06178313531738 120.77559828337769 l 1.4082153038864924 9.555384609895874 a30.658594379366754,30.658594379366754 0 0,0 -0.5227602896024465,0.0724498127362918 l -1.2435264230972154 -9.578208988124768" fill="#ff740a" stroke="none" /><path d="M 102.34483914955558 120.86867818915974 l 1.4351530414860714 12.772623222638936 a33.852998414377176,33.852998414377176 0 0,0 -0.579639749379631,0.06008203002714508 l -1.2150806955008377 -12.79543462112184" fill="#ff9f0e" stroke="none" /><path d="M 101.26447882468166 120.96189622390904 l 0.7734203235182864 12.82137450038674 a33.844680730792746,33.844680730792746 0 0,0 -0.5818254078358369,0.030073727738484508 l -0.5526068472689698 -12.832788034887427" fill="#ff9f0e" stroke="none" /><path d="M 100.90346689309514 120.98055641714683 l 0.5844232213891919 13.571636616191308 a34.58421403481422,34.58421403481422 0 0,0 -0.5949796516241064,0.020492302214776652 l -0.35072321809043316 -13.579685716832177" fill="#ffa80f" stroke="none" /><line stroke="#e1ed5e" stroke-width="0.3" x1="102.19456741930631" x2="102.32365962044197" y1="184.97166512339345" y2="189.96999836594603" /><path d="M 102.22038585953345 185.97133177190398 a86.0,86.0 0 0,1 -42.740103519485714,-10.115201625700543" fill="none" id="id19" stroke="none" /><text fill="#e1ed5e" style="font-size:6.75px; font-family:Arial;" text-anchor="middle"><textPath startOffset="22.20632615414155" xlink:href="#id19">July</textPath></text><path d="M 100.54218724476979 120.99299961872073 l 0.15487307787208804 5.996545466685199 a26.998545090625925,26.998545090625925 0 0,0 -0.46468392904774386,0.007999955250288201 l -0.0516294589316762 -5.998322899214647" fill="#ff4106" stroke="none" /><path d="M 99.81925306533755 120.99922214144158 l -0.1627484241720858 18.908150883674292 a39.90885128423626,39.90885128423626 0 0,0 -0.6868889325810358,-0.011825415898990397 l 0.4881970466457895 -18.902547990496142" fill="#ffed16" stroke="none" /><path d="M 99.09653310690486 120.98055641714683 l -0.3519039810994297 8.17201093399412 a29.179584287556004,29.179584287556004 0 0,0 -0.5016275279305715,-0.025928413400210116 l 0.4925195774434902 -8.164742713831707" fill="#ff5f08" stroke="none" /><path d="M 98.73552117531835 120.96189622390904 l -0.561259046487757 9.304271180791446 a30.321184148109648,30.321184148109648 0 0,0 -0.5207118162422826,-0.035911335523336134 l 0.7213336235089697 -9.293231500751824" fill="#ff6f0a" stroke="none" /><path d="M 97.65516085044442 120.86867818915974 l -0.9594833831196772 8.539242426912647 a29.59297792316888,29.59297792316888 0 0,0 -0.5057194403271886,-0.061235581385415974 l 1.1063302464982552 -8.521461316801883" fill="#ff6509" stroke="none" /><path d="M 97.2962882734958 120.8252237178851 l -2.578664248967359 19.862050880509834 a41.028743707204,41.028743707204 0 0,0 -0.6995819076701417,-0.0969556777982167 l 2.9201747478243316 -19.81472063721901" fill="#fffa17" stroke="none" /><path d="M 96.58105272829116 120.7198165907248 l -1.3063715111833774 7.916991974415169 a29.02404937972005,29.02404937972005 0 0,0 -0.4922354780301575,-0.08558144736517974 l 1.4424559606855847 -7.893331948528983" fill="#ff5d08" stroke="none" /><path d="M 96.22490169976321 120.6578951692458 l -2.1343918990217157 11.679707544916745 a32.87312920477979,32.87312920477979 0 0,0 -0.5557631180031355,-0.10651332429266717 l 2.3351226315965463 -11.641237022275611" fill="#ff920d" stroke="none" /><path d="M 95.51606077576429 120.51570834832081 l -1.359347700345393 6.219526976082104 a27.366344475179403,27.366344475179403 0 0,0 -0.45933738153689024,-0.10454369256367227 l 1.4662052312751461 -6.195206549940745" fill="#ff4606" stroke="none" /><path d="M 94.81253420990036 120.34920634021253 l -5.548147391169067 21.764075299404066 a43.460118279124586,43.460118279124586 0 0,0 -0.7233203188141493,-0.1910354703548923 l 5.921958152794706 -21.665348479745592" fill="#e6ff1a" stroke="none" /><path d="M 94.11515582081647 120.15858648285463 l -1.1676549491842083 3.999812494360521 a25.166763500655744,25.166763500655744 0 0,0 -0.4148022219009885,-0.12497650678425629 l 1.2363321455254426 -3.979120618470539" fill="#ff2703" stroke="none" /><path d="M 93.76903079525671 120.05430185196036 l -2.472478288128051 7.95764258869916 a29.332900122690976,29.332900122690976 0 0,0 -0.48089006661056377,-0.15396581332092238 l 2.609089699829555 -7.913903928718531" fill="#ff6209" stroke="none" /><path d="M 93.08242187328487 119.8279376855182 l -2.865678275041558 8.213928230869001 a29.699467165172354,29.699467165172354 0 0,0 -0.48124513028704075,-0.17255738183931965 l 3.0066429659583256 -8.163383307989724" fill="#ff6709" stroke="none" /><path d="M 92.40401165467489 119.57807347666478 l -3.124698500561083 8.053669128397113 a29.638595206924872,29.638595206924872 0 0,0 -0.47404664122537465,-0.18863294175127332 l 3.2628662178283157 -7.998689342239772" fill="#ff6609" stroke="none" /><path d="M 91.40352486487194 119.15986991738527 l -2.545087088669758 5.672503762392721 a27.217295812752766,27.217295812752766 0 0,0 -0.4257977496740328,-0.19546286281454167 l 2.64235283411121 -5.627853829244105" fill="#ff4406" stroke="none" /><path d="M 90.7491055286396 118.85261126421891 l -4.113051218612645 8.382081967790857 a30.336835033441236,30.336835033441236 0 0,0 -0.466820461634727,-0.23407347049746705 l 4.2567255879301324 -8.310040656384087" fill="#ff6f0a" stroke="none" /><path d="M 90.10565033884886 118.52300852407294 l -10.639377089474827 19.91775905120382 a43.581263704094454,43.581263704094454 0 0,0 -0.658652329981751,-0.3591497662912552 l 10.98065223132522 -19.7316686331528" fill="#e5ff1a" stroke="none" /><line stroke="#e1ed5e" stroke-width="0.3" x1="58.666819895761336" x2="56.23545636021788" y1="174.27360380694188" y2="178.64263932499728" /><path d="M 58.180547188652646 175.14741091055294 a86.0,86.0 0 0,1 -31.652253787137756,-30.449443065178592" fill="none" id="id20" stroke="none" /><text fill="#e1ed5e" style="font-size:6.75px; font-family:Arial;" text-anchor="middle"><textPath startOffset="22.20632615414155" xlink:href="#id20">August</textPath></text><path d="M 89.4739219176387 118.17145234162733 l -1.6113804951762216 2.7817695862801353 a24.214776684528417,24.214776684528417 0 0,0 -0.3588769761951464,-0.21203084325424343 l 1.65902534239975 -2.753620170732142" fill="#ff1902" stroke="none" /><path d="M 89.1626897886671 117.98757091392108 l -5.0949159775434385 8.456449124312783 a30.872674440612222,30.872674440612222 0 0,0 -0.4528298038774638,-0.2781650506674563 l 5.239724981353211 -8.367495606816949" fill="#ff770a" stroke="none" /><path d="M 88.54995079064634 117.60387380957326 l -3.5485267151245914 5.455681050865893 a27.508186965409806,27.508186965409806 0 0,0 -0.394710129736646,-0.2615923511039209 l 3.6419115436011995 -5.393790678670654" fill="#ff4806" stroke="none" /><path d="M 87.95078237400918 117.19931262002967 l -10.119517538736803 14.444817175280736 a38.63681883005229,38.63681883005229 0 0,0 -0.5414171390732347,-0.3862867532121332 l 10.366662005658926 -14.268486160224384" fill="#ffdd14" stroke="none" /><path d="M 87.07902340077011 116.55440617244103 l -4.9123886564531904 6.293771718514292 a28.98392915529818,28.98392915529818 0 0,0 -0.3906516180484792,-0.3103572717097372 l 5.019997767219028 -6.208280532799424" fill="#ff5d08" stroke="none" /><path d="M 86.51685102203217 116.09983520530335 l -4.070659070447524 4.86065534974576 a27.340050133621087,27.340050133621087 0 0,0 -0.3581996030415818,-0.30526547268647053 l 4.153724150066163 -4.789865486836337" fill="#ff4606" stroke="none" /><path d="M 85.97065885151581 115.62618273729859 l -17.110912674558996 19.05850356226503 a46.61269003031998,46.61269003031998 0 0,0 -0.5924260937930599,-0.541167190392848 l 17.43643831781891 -18.761143605285607" fill="#c1ff1e" stroke="none" /><path d="M 85.18274418774928 114.88116024355367 l -6.12516858561949 6.151585448502764 a29.680996125588976,29.680996125588976 0 0,0 -0.35894129637065314,-0.36360563816337266 l 6.230150507045676 -6.045239316358726" fill="#ff6609" stroke="none" /><path d="M 84.67929136418377 114.36230785411682 l -5.571673109305169 5.223132060045331 a28.637057663369298,28.637057663369298 0 0,0 -0.33403572090836886,-0.3625298021899181 l 5.660755238209267 -5.126451003054069" fill="#ff5808" stroke="none" /><path d="M 84.19399662182784 113.82643327865904 l -14.23335325624656 12.450744468449887 a39.91056272921935,39.91056272921935 0 0,0 -0.44786776449456395,-0.5209713918775867 l 14.445563530311901 -12.20389597741077" fill="#ffed16" stroke="none" /><path d="M 83.72743513129214 113.27417163493432 l -6.026180489474953 4.915792609572494 a28.776880368891895,28.776880368891895 0 0,0 -0.3098065332545982,-0.3865312851672661 l 6.109904934784412 -4.811333490826969" fill="#ff5a08" stroke="none" /><path d="M 83.50135304334701 112.99209946851258 l -7.608492656913857 5.9914181850052595 a30.68433024932152,30.68433024932152 0 0,0 -0.32319831758949175,-0.417777393056067 l 7.710497791721417 -5.85956279783594" fill="#ff740a" stroke="none" /><path d="M 83.06392112726016 112.41649034213515 l -7.62597656145219 5.590896513656939 a30.455878718672288,30.455878718672288 0 0,0 -0.3063284298257752,-0.42546339678639516 l 7.7210847836535725 -5.4587995114194054" fill="#ff710a" stroke="none" /><path d="M 82.44556493220864 111.52570212397912 l -18.553697291900786 12.181786964895565 a43.19539629872794,43.19539629872794 0 0,0 -0.4027356437996235,-0.6250546627626877 l 18.760637799077454 -11.86061070221143" fill="#e9ff1a" stroke="none" /><line stroke="#e1ed5e" stroke-width="0.3" x1="26.63291911575756" x2="22.317208475507996" y1="142.92168965132927" y2="145.44649492493687" /><path d="M 25.769776987707644 143.4266507060508 a86.0,86.0 0 0,1 -11.730757126820373,-40.83630448921669" fill="none" id="id21" stroke="none" /><text fill="#e1ed5e" style="font-size:6.75px; font-family:Arial;" text-anchor="middle"><textPath startOffset="21.46611528233685" xlink:href="#id21">September</textPath></text><path d="M 81.87401531095188 110.60418214915194 l -6.8698310919666365 4.0190335301969835 a28.959096038432953,28.959096038432953 0 0,0 -0.24801121979732227,-0.4324284666445666 l 6.937994307916336 -3.90018521769411" fill="#ff5c08" stroke="none" /><path d="M 81.69416730710424 110.29060199501025 l -5.730863931614034 3.221598317714696 a27.574305828251134,27.574305828251134 0 0,0 -0.22902902044978746,-0.41575419809233605 l 5.7854693615153385 -3.1224736012245375" fill="#ff4906" stroke="none" /><path d="M 81.35079622478065 109.6543875284942 l -28.137058400971 14.566094563018531 a52.6838313068109,52.6838313068109 0 0,0 -0.4099838949007126,-0.808937119821305 l 28.38362096565798 -14.07960323149454" fill="#7dff26" stroke="none" /><path d="M 81.02952815118164 109.00673069616217 l -5.356094678635279 2.542946888093352 a26.929108624588423,26.929108624588423 0 0,0 -0.19520447040666192,-0.42045306305100993 l 5.399073765881768 -2.450373757763515" fill="#ff4006" stroke="none" /><path d="M 80.87730276802145 108.67885076344099 l -7.167706503060667 3.253069078151833 a28.87137058848367,28.87137058848367 0 0,0 -0.20149317884616172,-0.4543139256523945 l 7.222640766638108 -3.1292068160067426" fill="#ff5b08" stroke="none" /><path d="M 80.58989483394504 108.01547362559985 l -7.123442181760178 2.9416513946167915 a28.706928145787472,28.706928145787472 0 0,0 -0.18467766405699532,-0.45835481688446206 l 7.173022460074561 -2.818597209889524" fill="#ff5908" stroke="none" /><path d="M 80.32549172779594 107.34259656027581 l -14.7157667532618 5.491976564261883 a36.707182997559016,36.707182997559016 0 0,0 -0.21583078795428864,-0.5938736328152513 l 14.808121802221311 -5.237855134440514" fill="#ffc412" stroke="none" /><path d="M 79.86692584326677 105.97154293290107 l -7.278522345727603 2.1588361686462223 a28.591933952578298,28.591933952578298 0 0,0 -0.13588978733969104,-0.4730501767947457 l 7.314604769953398 -2.0332285163468806" fill="#ff5708" stroke="none" /><path d="M 79.67330655649465 105.27499134158121 l -8.990330107997268 2.333085487290361 a30.288128085990582,30.288128085990582 0 0,0 -0.12661690272057322,-0.5057715865010883 l 9.029158325012899 -2.177986061391881" fill="#ff6f0a" stroke="none" /><path d="M 79.58551787078972 104.9243191809786 l -17.165252308659714 4.140549863320981 a38.65757741001282,38.65757741001282 0 0,0 -0.15046897619000968,-0.6482164112875829 l 17.233981850780278 -3.844464794684824" fill="#ffdd14" stroke="none" /><path d="M 79.35854240842038 103.8639653848113 l -8.11987399702532 1.519994986513651 a29.260916322454463,29.260916322454463 0 0,0 -0.08841472576547803,-0.49587673597742826 l 8.144835165129987 -1.3799994998030092" fill="#ff6108" stroke="none" /><path d="M 79.23777060512086 103.15116336523772 l -10.709100073891804 1.6253612839782845 a31.831741489533666,31.831741489533666 0 0,0 -0.07755720290982325,-0.5424348965132844 l 10.735491327818227 -1.4407809154845996" fill="#ff840c" stroke="none" /><path d="M 79.1416061653843 102.43462659150553 l -14.987150529440752 1.7493252596141204 a36.08889723790444,36.08889723790444 0 0,0 -0.06670894914954743,-0.6176420193535707 l 15.015041780091353 -1.4910869183757676" fill="#ffbc11" stroke="none" /><path d="M 79.07016306316243 101.71520430193888 l -8.949186217251091 0.7333875913607807 a29.979186561721438,29.979186561721438 0 0,0 -0.03772158463831393,-0.514681052451233 l 8.960484360553739 -0.5792334024127871" fill="#ff6b09" stroke="none" /><path d="M 79.0235259727143 100.99374915477108 l -6.999157481352904 0.33158131448386846 a28.007007322451802,28.007007322451802 0 0,0 -0.018668493701672617,-0.4817508708531043 l 7.003828107905776 -0.21105319661676739" fill="#ff4f07" stroke="none" /><path d="M 79.0095281055655 100.63252640178507 l -9.146875099758283 0.27563172583850476 a30.151027097482928,30.151027097482928 0 0,0 -0.011167276130803039,-0.5188994408294344 l 9.150264438574093 -0.11814246921894153" fill="#ff6d0a" stroke="none" /><line stroke="#e1ed5e" stroke-width="0.3" x1="15.007084014347285" x2="10.007500721073583" y1="101.09737516637583" y2="101.16192664675087" /><path d="M 14.007167355692545 101.11028546245083 a86.0,86.0 0 0,1 10.666146001902534,-42.60595125391555" fill="none" id="id22" stroke="none" /><text fill="#e1ed5e" style="font-size:6.75px; font-family:Arial;" text-anchor="middle"><textPath startOffset="22.20632615414155" xlink:href="#id22">October</textPath></text><path d="M 79.00019446554 99.90962569577889 l -14.827138885289843 -0.06380975091169784 a35.82727618977894,35.82727618977894 0 0,0 0.007962173474730353,-0.6166791102408787 l 14.823843704697397 0.3190251192130485" fill="#ffb911" stroke="none" /><path d="M 79.01574976396665 99.18683210126434 l -9.403208490086557 -0.36438696657014036 a30.410266083881055,30.410266083881055 0 0,0 0.02477190120735302,-0.5228956822632594 l 9.395542980645704 0.5261937554564089" fill="#ff700a" stroke="none" /><path d="M 79.05617556472873 98.46500227214037 l -4.525061689399188 -0.33164713699350973 a25.537198818251657,25.537198818251657 0 0,0 0.03590471318633378,-0.4381284441768591 l 4.518682492393357 0.4094894983781472" fill="#ff2c04" stroke="none" /><path d="M 79.21141760316559 97.0276538004421 l -5.730755875134298 -0.8193820108023999 a26.78903703391271,26.78903703391271 0 0,0 0.06919749426314477,-0.45592502924197714 l 5.715802487431851 0.9179061524364691" fill="#ff3e05" stroke="none" /><path d="M 79.26566170972629 96.67025291283419 l -15.96779066576149 -2.5642826751183896 a37.1723802943009,37.1723802943009 0 0,0 0.10689384994453217,-0.630893553286548 l 15.921284954296734 2.8387620167207657" fill="#ffca12" stroke="none" /><path d="M 79.46518482838121 95.60439243477599 l -15.371235159377312 -3.290310479481654 a36.71944698061176,36.71944698061176 0 0,0 0.13762031350262993,-0.616924880800603 l 15.312320458872644 3.5544135298322157" fill="#ffc412" stroke="none" /><path d="M 79.54389044137918 95.25157060432595 l -15.60610979795065 -3.6226101695606014 a37.02104763947399,37.02104763947399 0 0,0 0.14943669237186588,-0.6195115657120089 l 15.54144030531797 3.890706966932007" fill="#ffc812" stroke="none" /><path d="M 79.71946130924805 94.55025226153421 l -15.360905191640555 -4.127753192626197 a36.905840270976114,36.905840270976114 0 0,0 0.17014159912358348,-0.6120898573431891 l 15.28757682195061 4.391554353388329" fill="#ffc712" stroke="none" /><path d="M 79.91906864156998 93.8553929516997 l -4.952386126074442 -1.5153912013850337 a26.179048062624037,26.179048062624037 0 0,0 0.13556323414185673,-0.4297724982240254 l 4.925567408164381 1.6004138660354734" fill="#ff3505" stroke="none" /><path d="M 80.14247586403 93.16781622104843 l -2.941644203616586 -1.0121027009097683 a24.110887734692447,24.110887734692447 0 0,0 0.13840443977893926,-0.3912879889973665 l 2.923786683027837 1.0625883163337457" fill="#ff1802" stroke="none" /><path d="M 80.38941819471856 92.48833698450439 l -58.83174541584431 -22.534989046486853 a84.0,84.0 0 0,0 0.5288258004732356,-1.3458039804169464 l 58.435126065489385 23.544342031799562" fill="#4dd2ff" stroke="none" /><path d="M 80.52162464483688 92.15188598940014 l -14.752838293828981 -5.944128029097816 a36.905310300342244,36.905310300342244 0 0,0 0.24248249810393238,-0.5871906026978899 l 14.64833410883885 6.197193202249017" fill="#ffc712" stroke="none" /><path d="M 80.95270993114464 91.15688171328213 l -29.554943526782957 -13.721524721879483 a53.584888024427514,53.584888024427514 0 0,0 0.3956141820045115,-0.8332643614966487 l 29.314371150936694 14.228231499016664" fill="#74ff27" stroke="none" /><path d="M 81.26839172434947 90.50648371742162 l -27.175461655435225 -13.773013182633354 a51.466401302336685,51.466401302336685 0 0,0 0.4072966859830657,-0.7867675573879176 l 26.934355536292045 14.238753462281608" fill="#8bff24" stroke="none" /><path d="M 81.43458229118936 90.18545643968196 l -11.056866682426113 -5.8451741510669395 a33.50681261110303,33.50681261110303 0 0,0 0.27394515934908376,-0.5075787752146285 l 10.954613423858559 6.0346339096140404" fill="#ff9a0e" stroke="none" /><line stroke="#e1ed5e" stroke-width="0.3" x1="26.266209847984243" x2="21.928928074336255" y1="57.711370442889674" y2="55.22380399835377" /><path d="M 25.398753493254645 57.213857153982495 a86.0,86.0 0 0,1 29.58750427330803,-30.492523968695096" fill="none" id="id23" stroke="none" /><text fill="#e1ed5e" style="font-size:6.75px; font-family:Arial;" text-anchor="middle"><textPath startOffset="21.46611528233685" xlink:href="#id23">November</textPath></text><path d="M 81.96595687620814 89.24020034530311 l -21.52192799777213 -12.840805128902753 a46.06151753385543,46.06151753385543 0 0,0 0.4121062595987547,-0.6773943347353313 l 21.29770593988716 13.209367236845159" fill="#c7ff1d" stroke="none" /><path d="M 82.15384107792192 88.93136811851018 l -13.003054562852439 -8.06481803280842 a36.301003818927356,36.301003818927356 0 0,0 0.33392153173269934,-0.5281836717718333 l 12.862305434873777 8.287449352294468" fill="#ffbf11" stroke="none" /><path d="M 82.54541684631803 88.32363383020206 l -25.169003504416622 -16.836981923828 a51.281391938097016,51.281391938097016 0 0,0 0.4971255602404214,-0.7294704175806145 l 24.87545347850746 17.26773036467903" fill="#8dff24" stroke="none" /><path d="M 82.7489923806493 88.02491185347247 l -27.833132736107288 -19.320855063272557 a54.88183463571227,54.88183463571227 0 0,0 0.5453879185944558,-0.7714125332207326 l 27.496432197708955 19.797094096825074" fill="#66ff29" stroke="none" /><path d="M 83.39014120810768 87.1503855733568 l -27.335328748928333 -21.146984995484562 a55.56031209655429,55.56031209655429 0 0,0 0.5917065276818951,-0.751407201417329 l 26.967268140652468 21.61438459085494" fill="#5fff29" stroke="none" /><path d="M 83.84228863543731 86.58626213691792 l -29.34636973910218 -24.36264035367951 a59.141154438045334,59.141154438045334 0 0,0 0.6570001731673731,-0.7776809765080244 l 28.92265895244768 24.86418027981665" fill="#3bff2e" stroke="none" /><path d="M 84.07557802195018 86.31012108654704 l -1.3707546665990074 -1.1784079467158852 a22.807654182880704,22.807654182880704 0 0,0 0.2584955842013542,-0.29550513822212926 l 1.3502672188198097 1.2018286411409576" fill="#ff0400" stroke="none" /><path d="M 84.31358615837235 86.03803664274999 l -11.116473655175438 -9.894409225868667 a35.882046917516575,35.882046917516575 0 0,0 0.41461937486899225,-0.45783306945769453 l 10.944510639690401 10.084295082595919" fill="#ffb911" stroke="none" /><path d="M 84.80347519578584 85.50635884689758 l -5.440056586740098 -5.188438082825175 a28.517586408299202,28.517586408299202 0 0,0 0.34185217199538775,-0.35230871289552207 l 5.349940151041591 5.2813109912708205" fill="#ff5608" stroke="none" /><path d="M 85.31137513191541 84.99185889309783 l -14.006090932291146 -14.310760262157856 a41.024196425439015,41.024196425439015 0 0,0 0.5089281231505722,-0.4895884512476217 l 13.757679565528147 14.549731800167791" fill="#fffa17" stroke="none" /><path d="M 85.83668400450813 84.49514656593479 l -14.132833230227398 -15.471483366784284 a41.95480309337462,41.95480309337462 0 0,0 0.5373990976043964,-0.4824822159018905 l 13.86442314502703 15.712464591455454" fill="#f8ff18" stroke="none" /><path d="M 86.10567301691215 84.25364557470407 l -9.714980247862677 -11.009926742316967 a35.68330099424337,35.68330099424337 0 0,0 0.46406337077531506,-0.4024311821799594 l 9.524023078440587 11.175522917916608" fill="#ffb711" stroke="none" /><path d="M 86.37877921826538 84.01681056812374 l -4.811553180559493 -5.645893799001739 a28.418029441769455,28.418029441769455 0 0,0 0.37504012734573833,-0.3140853210753931 l 4.7136555162546445 5.727880277470944" fill="#ff5507" stroke="none" /><path d="M 86.93701828274178 83.55741782278169 l -7.54942171076987 -9.50257678963234 a33.13642178773887,33.13642178773887 0 0,0 0.44965721181007057,-0.3509645861622671 l 7.384731943800373 9.631119765017829" fill="#ff950d" stroke="none" /><path d="M 87.51073957382395 83.11751280151077 l -5.150741778930583 -6.9625685731772196 a29.66068715572939,29.66068715572939 0 0,0 0.41306699423134713,-0.30011073822441964 l 5.0301294683454545 7.050198546218307" fill="#ff6609" stroke="none" /><path d="M 88.09926311788651 82.69761687909137 l -8.731678957714061 -12.694915962910883 a36.407891118707845,36.407891118707845 0 0,0 0.5194111078915578,-0.3507086986496101 l 8.511863155415963 12.843336573859158" fill="#ffc011" stroke="none" /><path d="M 88.70189139769569 82.29822771554957 l -4.012059740691614 -6.286058173210436 a28.4572884294403,28.4572884294403 0 0,0 0.4151794357237858,-0.2599853245616012 l 3.903261152595585 6.354187839094967" fill="#ff5507" stroke="none" /><path d="M 89.00827224532344 82.1063720568725 l -10.829204807742029 -17.629053964443408 a41.68949541311438,41.68949541311438 0 0,0 0.6146975819116919,-0.3703484152036109 l 10.524145159612688 17.81284898910564" fill="#fcff18" stroke="none" /><line stroke="#e1ed5e" stroke-width="0.3" x1="56.762969772571076" x2="54.21961505331055" y1="26.818313649435495" y2="22.513508569990535" /><path d="M 56.25429882871897 25.957352633546506 a86.0,86.0 0 0,1 42.265352541879196,-11.944610805530505" fill="none" id="id24" stroke="none" /><text fill="#e1ed5e" style="font-size:6.75px; font-family:Arial;" text-anchor="middle"><textPath startOffset="22.20632615414155" xlink:href="#id24">December</textPath></text><path d="M 89.63071344664047 81.73862282372117 l -7.435521822856107 -13.0947165758126 a36.058505469635115,36.058505469635115 0 0,0 0.5423815839010294,-0.30183476421684374 l 7.209016149883032 13.220766737589628" fill="#ffbc11" stroke="none" /><path d="M 90.26544431104013 81.39251694778311 l -9.682336129348876 -18.50766600853221 a41.8873486590585,41.8873486590585 0 0,0 0.641753101607854,-0.3287308644692406 l 9.362322540152258 18.671589398313955" fill="#f9ff18" stroke="none" /><path d="M 90.91171255644093 81.06846463323043 l -3.3024015013047445 -6.879132202352568 a28.63074803235331,28.63074803235331 0 0,0 0.4461240277608031,-0.20946121290381758 l 3.1834992622443328 6.934958397896392" fill="#ff5808" stroke="none" /><path d="M 91.56875222667455 80.76684994638697 l -23.131562323057555 -52.76713733184394 a78.61458112060848,78.61458112060848 0 0,0 1.2440429609947423,-0.5326342719451435 l 22.219835604272504 53.157491131751875" fill="#46fff9" stroke="none" /><path d="M 92.57280143429618 80.3572730644239 l -11.287354617506288 -29.85168938400129 a52.91438129339555,52.91438129339555 0 0,0 0.8547377788347189,-0.31480713737367166 l 10.771834512899 30.04155978918128" fill="#7bff26" stroke="none" /><path d="M 92.91201910852362 80.23233633223022 l -8.682654459633357 -24.21504737800484 a46.72463815069923,46.72463815069923 0 0,0 0.7594266597364202,-0.26494904984868956 l 8.264545795833651 24.360917281025742" fill="#c0ff1e" stroke="none" /><path d="M 94.98787191387505 79.60689891045804 l -5.016639755669998 -20.41145794944933 a42.01890316025808,42.01890316025808 0 0,0 0.7038692776949482,-0.16658311692611238 l 4.6645467910125165 20.494786978516313" fill="#f8ff18" stroke="none" /><path d="M 96.40284397218896 79.31037775812273 l -4.915991401423395 -28.275116301157546 a49.69928872468539,49.69928872468539 0 0,0 0.8441087982745841,-0.1392851843185807 l 4.428553397009925 28.355547748415752" fill="#9eff22" stroke="none" /><path d="M 97.47563105711357 79.15227682838746 l -1.870285396212704 -15.44591661295303 a36.558737335580446,36.558737335580446 0 0,0 0.625386463265853,-0.07026945594616844 l 1.604132229437133 15.475822022369798" fill="#ffc212" stroke="none" /><path d="M 98.55514903715128 79.0497635885617 l -0.5079982647398806 -7.365938782999087 a28.38343527037847,28.38343527037847 0 0,0 0.4877057442788833,-0.029419742361516094 l 0.38113047162137437 7.373591794740909" fill="#ff5407" stroke="none" /><path d="M 99.27714615592234 79.0124445844662 l -0.2556295978125988 -7.422026449604282 a28.42642734495554,28.42642734495554 0 0,0 0.4891692237635659,-0.012633797860027702 l 0.1278337388541539 7.425327039606669" fill="#ff5507" stroke="none" /></svg>