<?xml version="1.0" encoding="utf-8" ?>
<svg baseProfile="full" height="200mm" version="1.1" viewBox="0,0,200,200" width="200mm" xmlns="http://www.w3.org/2000/svg" xmlns:ev="http://www.w3.org/2001/xml-events" xmlns:xlink="http://www.w3.org/1999/xlink"><defs /><rect fill="#1a1a1a" height="200" width="200" x="0" y="0" /><text alignment-baseline="middle" fill="#e1ed5e" style="dominant-baseline: central; font-size:9.0px; font-family:Arial;" text-anchor="middle" x="100.0" y="100.0">2022</text><line stroke="#e1ed5e" stroke-width="0.3" x1="100.0" x2="100.0" y1="15.0" y2="10.0" /><path d="M 100.0 14.0 a86.0,86.0 0 0,1 42.46469731375804,11.215312516191453" fill="none" id="id109" stroke="none" /><text fill="#e1ed5e" style="font-size:6.75px; font-family:Arial;" text-anchor="middle"><textPath startOffset="22.20632615414155" xlink:href="#id109">January</textPath></text><path d="M 105.71112130821622 79.79150937346287 l 2.993898005427939 -10.593744470539997 a32.00867145363155,32.00867145363155 0 0,0 0.5289201005755731,0.1544062813021461 l -3.17580832372694 10.540639860319148" fill="#ff8d0d" stroke="none" /><path d="M 106.0581310904928 79.89281104454417 l 3.2262811856565223 -10.70816138746692 a32.18363136861005,32.18363136861005 0 0,0 0.5290600146538265,0.16438152188513303 l -3.410126573021067 10.651039730699267" fill="#ff8f0d" stroke="none" /><path d="M 106.40334571778207 80.00007090966166 l 3.285171865374824 -10.26076167879136 a31.773837961191155,31.773837961191155 0 0,0 0.5194525893029946,0.17125535165798714 l -3.4613072769202358 10.202692602874137" fill="#ff8a0c" stroke="none" /><path d="M 106.74666289553966 80.11325718540242 l 3.2979777576552345 -9.721255751211915 a31.265450339388885,31.265450339388885 0 0,0 0.5081648024714026,0.17728872150481642 l -3.464824564189911 9.663046176534891" fill="#ff830c" stroke="none" /><path d="M 107.08798089147638 80.2323363322302 l 3.786288161667272 -10.559575720513413 a32.21787045033228,32.21787045033228 0 0,0 0.5204224325105786,0.19167597391922325 l -3.967492919950427 10.492836478787865" fill="#ff900d" stroke="none" /><path d="M 108.09893153111575 80.62456947434976 l 0.5023339925684749 -1.2017557299119594 a22.30251920310835,22.30251920310835 0 0,0 0.3529280653993476,0.15110537903986562 l -0.5229458157581377 1.192930822909303" fill="#ff0600" stroke="none" /><line stroke="#e1ed5e" stroke-width="0.3" x1="143.23703022742887" x2="145.7803849466894" y1="26.81831364943548" y2="22.513508569990506" /><path d="M 143.74570117128098 25.957352633546492 a86.0,86.0 0 0,1 28.547481713284135,27.462654790039103" fill="none" id="id110" stroke="none" /><text fill="#e1ed5e" style="font-size:6.75px; font-family:Arial;" text-anchor="middle"><textPath startOffset="19.985693538727396" xlink:href="#id110">February</textPath></text><path d="M 112.77801427241765 83.33499621200491 l 6.295864547172085 -8.211025930203117 a31.346925012911147,31.346925012911147 0 0,0 0.42537395831134434,0.33201112163192875 l -6.436271060642859 8.101436419347964" fill="#ff840c" stroke="none" /><path d="M 113.06298171725822 83.55741782278167 l 3.7486697282748707 -4.718510015288253 a27.02634727642375,27.02634727642375 0 0,0 0.3617625889818351,0.29252018805491975 l -3.829335715821197 4.653283729969203" fill="#ff4906" stroke="none" /><path d="M 113.34407831869373 83.78471172551755 l 2.7599010949247185 -3.3537416968371754 a25.34334403689956,25.34334403689956 0 0,0 0.334462704194229,0.2801028961302208 l -2.817221336078065 3.3057376433131354" fill="#ff3104" stroke="none" /><path d="M 114.42810811169701 84.74124197986012 l 6.570847661557052 -6.949142166020843 a30.563818057395206,30.563818057395206 0 0,0 0.37916127348251427,0.3647528446810954 l -6.689492178651984 6.835006234577445" fill="#ff7a0b" stroke="none" /><path d="M 114.68862486808459 84.99185889309783 l 8.038775703505763 -8.213640226260598 a32.4928586773579,32.4928586773579 0 0,0 0.3963574830172218,0.3946553980231525 l -8.178968986690307 8.074048977587326" fill="#ff930d" stroke="none" /><path d="M 114.94478906791727 85.2469230424477 l 5.50133640524467 -5.430765130716533 a28.7303241942804,28.7303241942804 0 0,0 0.34440234833788363,0.3549368937832928 l -5.5940030172856625 5.335264041383126" fill="#ff6108" stroke="none" /><path d="M 115.19652480421416 85.50635884689758 l 8.113204802775712 -7.737945387385495 a32.21159627305333,32.21159627305333 0 0,0 0.37922662905682053,0.4045325270657634 l -8.245198753802995 7.597143443441677" fill="#ff900d" stroke="none" /><path d="M 115.4437574822437 85.77008943001954 l 1.041147005390838 -0.9593150367679943 a22.41572328744126,22.41572328744126 0 0,0 0.25901513361375456,0.28601097981937845 l -1.0575057796206282 0.9412512696790669" fill="#ff0801" stroke="none" /><path d="M 116.15771136456269 86.58626213691792 l 1.1255532893094042 -0.9344068867846584 a22.46286924813731,22.46286924813731 0 0,0 0.24441902359475426,0.2996288224965065 l -1.1414708049805673 0.914893894680051" fill="#ff0801" stroke="none" /><path d="M 116.38621287248628 86.86637796730983 l 4.523919952782488 -3.625941834659911 a26.797698330158305,26.797698330158305 0 0,0 0.2853902800482785,0.3624166738246153 l -4.585664313424731 3.547532766882257" fill="#ff4606" stroke="none" /><path d="M 116.60985879189232 87.15038557335679 l 7.194255372678585 -5.565574565320811 a30.095764432386133,30.095764432386133 0 0,0 0.31346037041477254,0.41247710405423016 l -7.28899168331747 5.440912685385548" fill="#ff730a" stroke="none" /><path d="M 116.82858285166822 87.43820079747576 l 8.931816060345827 -6.667209048611194 a32.14580704272843,32.14580704272843 0 0,0 0.3271790864739926,0.44627190625927304 l -9.045257759333445 6.512474698680427" fill="#ff8f0d" stroke="none" /><path d="M 117.04232023915458 87.72973835380427 l 10.055386221311247 -7.239754807891176 a33.39051418376653,33.39051418376653 0 0,0 0.33181804421007266,0.46933309177825067 l -10.178516885325202 7.065595215781133" fill="#ff9f0e" stroke="none" /><path d="M 117.2510076193507 88.02491185347247 l 13.6648166705035 -9.485671083459723 a37.63445732634685,37.63445732634685 0 0,0 0.36483117902277673,0.535344737412946 l -13.826072315195011 9.24904832277637" fill="#ffd614" stroke="none" /><path d="M 117.65298651832404 88.62581576622439 l 8.758468779933134 -5.643262538342959 a31.419078051618982,31.419078051618982 0 0,0 0.2890142300460559,0.4571511050153874 l -8.854310606225145 5.491663785613365" fill="#ff850c" stroke="none" /><line stroke="#e1ed5e" stroke-width="0.3" x1="172.23445277983987" x2="176.4835382374775" y1="55.19839476539836" y2="52.563006222186495" /><path d="M 173.08426987136738 54.67131705675599 a86.0,86.0 0 0,1 12.851231095245387,41.99856678651699" fill="none" id="id111" stroke="none" /><text fill="#e1ed5e" style="font-size:6.75px; font-family:Arial;" text-anchor="middle"><textPath startOffset="22.20632615414155" xlink:href="#id111">March</textPath></text><path d="M 117.84615892207809 88.93136811851018 l 9.928308228018738 -6.157783838064661 a32.68287661780586,32.68287661780586 0 0,0 0.2924093420498234,0.4806440744702473 l -10.032833368354785 5.985971990387331" fill="#ff960d" stroke="none" /><path d="M 118.03404312379186 89.2402003453031 l 9.782366605169473 -5.836533942938118 a32.391217005439046,32.391217005439046 0 0,0 0.2815572998321483,0.48127269355283764 l -9.88138357947195 5.6672818370313855" fill="#ff920d" stroke="none" /><path d="M 118.21658344932153 89.55222093294921 l 10.257387757537302 -5.882931966576459 a32.824673024309945,32.824673024309945 0 0,0 0.27688761920623384,0.49255217861707634 l -10.357133018035968 5.705496278024589" fill="#ff980e" stroke="none" /><path d="M 118.3937258080291 89.86733742301442 l 9.806954977388973 -5.4024163853848055 a32.196538247583874,32.196538247583874 0 0,0 0.2632326119196701,0.48773005178191736 l -9.898495688527108 5.2328053502704295" fill="#ff8f0d" stroke="none" /><path d="M 118.73160827565052 90.50648371742162 l 3.561260408364615 -1.8049108851619475 a24.992527895902718,24.992527895902718 0 0,0 0.1911809217837809,0.3854090722981243 l -3.5918013431018037 1.7433422243648735" fill="#ff2d04" stroke="none" /><path d="M 118.89224826269711 90.83032412892265 l 10.897969089504654 -5.289515721699028 a33.11382296576519,33.11382296576519 0 0,0 0.244477472448408,0.5149319065050989 l -10.987404755794818 5.10114139955339" fill="#ff9c0e" stroke="none" /><path d="M 119.04729006885535 91.15688171328212 l 10.911148498684778 -5.065737775243122 a33.02974899022736,33.02974899022736 0 0,0 0.23497942716296177,0.517746020050188 l -10.996730242811086 4.87716974635087" fill="#ff9a0e" stroke="none" /><path d="M 119.196687751892 91.48605970444005 l 10.33781459606271 -4.584933473680705 a32.30893565198092,32.30893565198092 0 0,0 0.2210997242040325,0.5103286472980227 l -10.415205030109425 4.40630568179608" fill="#ff910d" stroke="none" /><path d="M 119.34039704204932 91.81776055985345 l 10.625619049240047 -4.49532442749955 a32.53740533603839,32.53740533603839 0 0,0 0.2137836333984103,0.5176940254399436 l -10.701424369524656 4.311755831606303" fill="#ff940d" stroke="none" /><path d="M 119.47837535516314 92.15188598940014 l 10.78738759850896 -4.346391637184888 a32.63008389755876,32.63008389755876 0 0,0 0.20542416948373965,0.5227821046508423 l -10.8606053178744 4.160060527638261" fill="#ff950d" stroke="none" /><path d="M 119.61058180528143 92.48833698450437 l 32.91084404120798 -12.606212933800265 a56.242591562440865,56.242591562440865 0 0,0 0.33851454782236823,0.9070506893194268 l -33.12296317753198 12.037839107451504" fill="#55ff2b" stroke="none" /><path d="M 120.08093135843002 93.85539295169968 l 11.169516495525981 -3.417784193346371 a32.68072547131022,32.68072547131022 0 0,0 0.1599707550743845,0.5393418603885849 l -11.226693147712067 3.2250129462112564" fill="#ff960d" stroke="none" /><path d="M 120.37134235888165 94.90015583598534 l 18.05629654941974 -4.520286241280928 a39.613512102333104,39.613512102333104 0 0,0 0.15990126155947224,0.6628939608856523 l -18.131430611240035 4.20880704873587" fill="#ffee16" stroke="none" /><path d="M 120.67395015179393 96.31383870115 l 11.514722055831063 -2.0530727073237043 a32.69632128340359,32.69632128340359 0 0,0 0.09402237987816454,0.5549254083426849 l -11.548356297229452 1.8545615106651816" fill="#ff960d" stroke="none" /><path d="M 120.83666639777658 97.38593545837742 l 16.244056792912676 -2.037898580503621 a37.37139003615121,37.37139003615121 0 0,0 0.07458198877049009,0.6389729333325858 l -16.276729134686757 1.7579819088461823" fill="#ffd213" stroke="none" /><path d="M 120.98425023603335 99.18683210126433 l 11.859153571172824 -0.4595581391654766 a32.868054478638626,32.868054478638626 0 0,0 0.017041781895805765,0.5655337751996949 l -11.865307047524274 0.2553542165407826" fill="#ff980e" stroke="none" /><line stroke="#e1ed5e" stroke-width="0.3" x1="184.98032266829074" x2="189.97916517819016" y1="98.17113171792111" y2="98.06355123074" /><path d="M 185.9800911702706 98.14961562048488 a86.0,86.0 0 0,1 -9.607161424134198,41.387399972396054" fill="none" id="id112" stroke="none" /><text fill="#e1ed5e" style="font-size:6.75px; font-family:Arial;" text-anchor="middle"><textPath startOffset="21.466115282336823" xlink:href="#id112">April</textPath></text><line stroke="#e1ed5e" stroke-width="0.3" x1="174.80103733775053" x2="179.2010983576182" y1="140.37084112569926" y2="142.7455964860345" /><path d="M 175.68104954172406 140.8457921977663 a86.0,86.0 0 0,1 -30.038265399797805,32.042727171017184" fill="none" id="id113" stroke="none" /><text fill="#e1ed5e" style="font-size:6.75px; font-family:Arial;" text-anchor="middle"><textPath startOffset="22.206326154141568" xlink:href="#id113">May</textPath></text><path d="M 118.30583269289576 110.29060199501025 l 0.7840546169545426 0.4407553669252446 a21.89944812848832,21.89944812848832 0 0,0 -0.18755104910824438,0.3270110628452 l -0.7763515716939187 -0.4541862756287597" fill="#ff0000" stroke="none" /><path d="M 118.12598468904814 110.60418214915192 l 0.8670226272021685 0.5072312497231208 a22.004495782358607,22.004495782358607 0 0,0 -0.19407873521478636,0.32528712360797424 l -0.8581630162891549 -0.5220804672171993" fill="#ff0200" stroke="none" /><path d="M 117.75023020441432 111.22182372390056 l 0.7671518979026307 0.4849989700740968 a21.907604558950947,21.907604558950947 0 0,0 -0.20425725846196932,0.31701180109178556 l -0.7586897760636111 -0.4981323710873353" fill="#ff0000" stroke="none" /><path d="M 117.14729908036423 112.12312394758627 l 1.1223990065023766 0.793535017421937 a22.374582610712196,22.374582610712196 0 0,0 -0.22504590402589794,0.31256907762097397 l -1.1085733101008757 -0.8127377004940421" fill="#ff0701" stroke="none" /><path d="M 116.93607887273984 112.41649034213515 l 0.8933065314440947 0.6549173515066108 a22.10766118304521,22.10766118304521 0 0,0 -0.22764441193122756,0.30496689090000273 l -0.8819008528177751 -0.6701971219159285" fill="#ff0300" stroke="none" /><path d="M 115.07121518719521 114.62390073753431 l 0.6774832653815069 0.6573755268717374 a21.94399478716881,21.94399478716881 0 0,0 -0.2653753904730465,0.2688238694779961 l -0.6660672498529249 -0.6689398903303981" fill="#ff0100" stroke="none" /><path d="M 114.81725581225074 114.88116024355365 l 0.6878858219379285 0.6908525623930629 a21.974917518043593,21.974917518043593 0 0,0 -0.27034385653926457,0.26458836346296627 l -0.6758920130228696 -0.7025910287786012" fill="#ff0100" stroke="none" /><path d="M 112.63410532772338 116.77436683061366 l 0.5488408024640096 0.728698765233315 a21.91226537635816,21.91226537635816 0 0,0 -0.303239697645076,0.224329478880525 l -0.5362161344003693 -0.7380381928536089" fill="#ff0000" stroke="none" /><path d="M 111.7513745106137 117.40417183066458 l 2.3643822827633554 3.5017278604665436 a25.22521024184748,25.22521024184748 0 0,0 -0.3619520988320207,0.23988211446116592 l -2.3037554851913704 -3.541907996019028" fill="#ff3004" stroke="none" /><path d="M 111.45004920935366 117.60387380957326 l 0.5336170161816847 0.8204092789251554 a21.97868202441096,21.97868202441096 0 0,0 -0.3189192561839062,0.20354935843892624 l -0.5194159579508479 -0.8294730661878904" fill="#ff0100" stroke="none" /><path d="M 111.1453310114006 117.79835938074945 l 6.102459634560535 9.745226011800273 a32.498236543596995,32.498236543596995 0 0,0 -0.4766729914737061,0.2928114838946675 l -5.933807443154521 -9.84882596252332" fill="#ff930d" stroke="none" /><line stroke="#e1ed5e" stroke-width="0.3" x1="143.8653032363475" x2="146.44561519142675" y1="172.8068346515853" y2="177.08958963109032" /><path d="M 144.38136562736335 173.6633856474863 a86.0,86.0 0 0,1 -40.68145358897372,12.25698825130547" fill="none" id="id114" stroke="none" /><text fill="#e1ed5e" style="font-size:6.75px; font-family:Arial;" text-anchor="middle"><textPath startOffset="21.466115282336833" xlink:href="#id114">June</textPath></text><path d="M 110.8373102113329 117.98757091392108 l 14.273673800675358 23.691184868302035 a48.65881422317575,48.65881422317575 0 0,0 -0.7211517306625443,0.4260691538024174 l -13.86375419898443 -23.9333725943982" fill="#a6ff21" stroke="none" /><path d="M 110.21172684928248 118.3499491758327 l 22.849345567011834 41.05910156470407 a67.98874773966006,67.98874773966006 0 0,0 -1.027527503913575,0.5602899224521403 l -22.139195251229612 -41.446332138915984" fill="#39ff8b" stroke="none" /><path d="M 109.57404056367764 118.69057910512821 l 3.243084484979869 6.331195978121738 a28.113482936656418,28.113482936656418 0 0,0 -0.4326077215432339,0.21691849237075875 l -3.1336228557538743 -6.386082311401799" fill="#ff5808" stroke="none" /><path d="M 109.2508944713604 118.85261126421891 l 4.466845845363588 9.103088199799474 a31.139966793810046,31.139966793810046 0 0,0 -0.48324384271410015,0.231986411182728 l -4.309489334649255 -9.178628887481763" fill="#ff810b" stroke="none" /><path d="M 108.92500713936063 119.00905698771935 l 4.849461148656619 10.328695752858355 a32.41048769279579,32.41048769279579 0 0,0 -0.5070420228509327,0.2327581238500933 l -4.670951130038268 -10.410640947042522" fill="#ff920d" stroke="none" /><path d="M 108.59647513512805 119.15986991738527 l 4.892491548114314 10.904411419830259 a32.95168029865653,32.95168029865653 0 0,0 -0.5195057181986947,0.22773603999256364 l -4.704065155257865 -10.987012013117276" fill="#ff990e" stroke="none" /><path d="M 108.2653958097858 119.30500536409082 l 4.589905770495152 10.720376562629081 a32.66163404616144,32.66163404616144 0 0,0 -0.5187422444687741,0.21683430025918934 l -4.404692066528916 -10.797795905908243" fill="#ff960d" stroke="none" /><path d="M 106.57524785965236 119.94407469862006 l 3.224287866347761 9.779926084747457 a31.297717536823445,31.297717536823445 0 0,0 -0.5131017188238697,0.16427896714917278 l -3.055464802432951 -9.833977898556336" fill="#ff830c" stroke="none" /><path d="M 106.2309692047433 120.05430185196036 l 10.112527367620505 32.54705161471366 a55.0818687658366,55.0818687658366 0 0,0 -0.9078672968787723,0.2735329692005778 l -9.550785096301487 -32.71629995301996" fill="#61ff29" stroke="none" /><path d="M 105.88484417918355 120.15858648285463 l 3.0660540437517447 10.502795608540767 a31.94117923233093,31.94117923233093 0 0,0 -0.5291114623291613,0.14953218440576618 l -2.8848114133179776 -10.554016586285053" fill="#ff8c0c" stroke="none" /><path d="M 105.53697534728816 120.25689768951611 l 3.2430820719282765 11.86474159794306 a33.29998676874179,33.29998676874179 0 0,0 -0.5542220776155208,0.14637508794433626 l -3.0383695515012583 -11.918808035190981" fill="#ff9e0e" stroke="none" /><path d="M 105.18746579009965 120.34920634021253 l 1.3753687498247942 5.395247625050308 a26.567794548437075,26.567794548437075 0 0,0 -0.4441208098974313,0.10915408966716789 l -1.2822946551841519 -5.4181229730315055" fill="#ff4306" stroke="none" /><path d="M 104.13013068566511 120.58985236759428 l 2.344172535236032 11.686353313758742 a32.919144207910016,32.919144207910016 0 0,0 -0.5565410616377312,0.10666241904176169 l -2.1426638590265963 -11.724972931148972" fill="#ff990e" stroke="none" /><path d="M 103.7750983002368 120.6578951692458 l 2.1063942218881633 11.526500122696453 a32.71738459284004,32.71738459284004 0 0,0 -0.5548728654040231,0.09647176005064699 l -1.90767238501209 -11.561050461268106" fill="#ff960d" stroke="none" /><path d="M 103.41894727170886 120.7198165907248 l 2.1329817014192116 12.92649056347939 a34.10128883836666,34.10128883836666 0 0,0 -0.5799884465615116,0.0905822672880639 l -1.910157391249183 -12.96129113811456" fill="#ffa80f" stroke="none" /><path d="M 101.98527174616119 120.90594882070398 l 1.117535691472501 11.768234760007111 a32.82117741125454,32.82117741125454 0 0,0 -0.5628920734798228,0.04856869662616082 l -0.9147993002511365 -11.785727708911937" fill="#ff980e" stroke="none" /><path d="M 101.62511606390274 120.93702456842531 l 0.9722521394542435 12.525915768485037 a33.56359184556134,33.56359184556134 0 0,0 -0.5763943381679071,0.03975152824661059 l -0.756495040507406 -12.540795641247932" fill="#ffa10e" stroke="none" /><path d="M 101.26447882468166 120.96189622390904 l 0.3570589668611647 5.919144601764439 a26.92990420853601,26.92990420853601 0 0,0 -0.4629531778935024,0.023929391257460686 l -0.2551177205541827 -5.924413799784102" fill="#ff4806" stroke="none" /><line stroke="#e1ed5e" stroke-width="0.3" x1="102.19456741930631" x2="102.32365962044197" y1="184.97166512339345" y2="189.96999836594603" /><path d="M 102.22038585953345 185.97133177190398 a86.0,86.0 0 0,1 -42.740103519485714,-10.115201625700543" fill="none" id="id115" stroke="none" /><text fill="#e1ed5e" style="font-size:6.75px; font-family:Arial;" text-anchor="middle"><textPath startOffset="22.20632615414155" xlink:href="#id115">July</textPath></text><path d="M 100.54218724476979 120.99299961872073 l 0.15264267857116823 5.910186423521642 a26.912157249947004,26.912157249947004 0 0,0 -0.4631970696227681,0.007974357616886824 l -0.05088591905573219 -5.911938258417689" fill="#ff4806" stroke="none" /><path d="M 99.81925306533755 120.99922214144158 l -0.08692905097008163 10.099437953260592 a31.099812059224817,31.099812059224817 0 0,0 -0.5352726530936173,-0.00921520415011385 l 0.2607613939563668 -10.096445271831318" fill="#ff810b" stroke="none" /><path d="M 99.45781275523022 120.99299961872073 l -0.3432186629918229 13.28911613253572 a34.29354755641424,34.29354755641424 0 0,0 -0.5899790857623924,-0.020320072615657204 l 0.5719181004288584 -13.281239261493967" fill="#ffab0f" stroke="none" /><path d="M 99.09653310690486 120.98055641714683 l -0.04191999184002937 0.9734775679416701 a21.974379731419685,21.974379731419685 0 0,0 -0.37776253677406185,-0.019526008193764065 l 0.058670597027580144 -0.972611752985704" fill="#ff0100" stroke="none" /><path d="M 98.73552117531835 120.96189622390904 l -0.8916354829294937 14.781086166016772 a35.807954689342864,35.807954689342864 0 0,0 -0.6149372343484655,-0.04240967202903843 l 1.1459354780568891 -14.763548149471449" fill="#ffbe11" stroke="none" /><path d="M 98.37488393609728 120.93702456842531 l -1.0093471272676133 13.003825431964083 a34.04293898967251,34.04293898967251 0 0,0 -0.5838456151385035,-0.050376656368376946 l 1.2330370601476586 -12.984524523317043" fill="#ffa80f" stroke="none" /><path d="M 98.01472825383883 120.90594882070398 l -1.1325506151972666 11.92634975234701 a32.98000372751575,32.98000372751575 0 0,0 -0.5646921097257472,-0.05853264605980367 l 1.337675321528607 -11.905087737831446" fill="#ff9a0e" stroke="none" /><path d="M 97.65516085044442 120.86867818915974 l -0.9098281881866851 8.097319455917813 a29.148274032161915,29.148274032161915 0 0,0 -0.4981198197869627,-0.06031537317315464 l 1.0490754310250372 -8.080458554019309" fill="#ff6609" stroke="none" /><path d="M 97.2962882734958 120.8252237178851 l -3.5849324728678686 27.612788755964505 a48.84452987063244,48.84452987063244 0 0,0 -0.8328490296949653,-0.11542528657807494 l 4.059710093749665 -27.546988903893823" fill="#a4ff21" stroke="none" /><path d="M 96.58105272829116 120.7198165907248 l -1.4786215740663446 8.96087754124114 a30.082050873476447,30.082050873476447 0 0,0 -0.5101787313723216,-0.08870111195662235 l 1.6326492769107164 -8.934097850763512" fill="#ff730a" stroke="none" /><path d="M 96.22490169976321 120.6578951692458 l -2.04302306113051 11.179723776342044 a32.364865460867485,32.364865460867485 0 0,0 -0.5471702566018066,-0.10486648195392004 l 2.235160932304012 -11.142900096039655" fill="#ff920d" stroke="none" /><path d="M 95.86986931433489 120.58985236759428 l -2.294778856158488 11.440112059546442 a32.66799785454437,32.66799785454437 0 0,0 -0.5503912656640129,-0.11533984107393566 l 2.491361583251888 -11.398916237745965" fill="#ff960d" stroke="none" /><path d="M 95.51606077576429 120.51570834832081 l -2.515379918047177 11.508809152665316 a32.7804848900454,32.7804848900454 0 0,0 -0.5502124008034631,-0.1252265510850822 l 2.713112468243503 -11.463805868002547" fill="#ff970d" stroke="none" /><path d="M 94.46302465271185 120.25689768951611 l -2.9245614956255284 10.699441353409641 a32.091938749233506,32.091938749233506 0 0,0 -0.5316088212359114,-0.1502379629782576 l 3.1083014849660535 -10.647514597092862" fill="#ff8e0d" stroke="none" /><path d="M 94.11515582081647 120.15858648285463 l -3.937602178529131 13.488291556084835 a35.05128890950246,35.05128890950246 0 0,0 -0.5777203937954222,-0.1740624155379066 l 4.169197546764799 -13.418513771441203" fill="#ffb510" stroke="none" /><path d="M 93.76903079525671 120.05430185196036 l -3.518850812682675 11.325380378358282 a32.85944989265608,32.85944989265608 0 0,0 -0.5387051052426324,-0.1724763629521662 l 3.7132772630162476 -11.26313116874641" fill="#ff980e" stroke="none" /><path d="M 93.42475214034765 119.94407469862007 l -3.665736627229034 11.118930674468738 a32.70761480250569,32.70761480250569 0 0,0 -0.533181262396577,-0.18088403280236895 l 3.8565876225628366 -11.054183654768245" fill="#ff960d" stroke="none" /><path d="M 92.40401165467489 119.57807347666478 l -0.7340069349071628 1.8918462023231117 a23.029248194217796,23.029248194217796 0 0,0 -0.3683351953828027,-0.1465681758149096 l 0.7664632063318236 -1.8789311821021355" fill="#ff1001" stroke="none" /><path d="M 92.06813273071674 119.44442032107085 l -4.618685614551151 11.32238618868508 a33.228192254449894,33.228192254449894 0 0,0 -0.527740498388781,-0.22059557112753297 l 4.812897572437394 -11.241205574537574" fill="#ff9d0e" stroke="none" /><path d="M 91.7346041902142 119.30500536409082 l -4.639471263570431 10.836143808591974 a32.7875657472602,32.7875657472602 0 0,0 -0.5169183403437044,-0.22660180957695844 l 4.825310278571878 -10.754677445720564" fill="#ff970e" stroke="none" /><path d="M 91.40352486487194 119.15986991738527 l -4.55515425036818 10.15255224016639 a32.127611928619494,32.127611928619494 0 0,0 -0.5026166065769488,-0.23072663229166882 l 4.729238852712549 -10.072638537540646" fill="#ff8f0d" stroke="none" /><path d="M 91.07499286063937 119.00905698771935 l -5.71829198702558 12.179187820971887 a34.45479391248305,34.45479391248305 0 0,0 -0.5346848029876478,-0.2566811981760421 l 5.92708945801347 -12.078952346296282" fill="#ffad10" stroke="none" /><path d="M 90.7491055286396 118.85261126421891 l -5.322902459642097 10.847665723531929 a33.08325875930634,33.08325875930634 0 0,0 -0.5090821804376157,-0.2552643736441262 l 5.508838547762473 -10.7544335089785" fill="#ff9b0e" stroke="none" /><path d="M 90.42595943632237 118.69057910512821 l -0.674900248902872 1.3175499316397703 a22.480347313414363,22.480347313414363 0 0,0 -0.3428885599452702,-0.17938308864921046 l 0.6974797113746378 -1.305737424045843" fill="#ff0801" stroke="none" /><path d="M 90.10565033884886 118.52300852407294 l -7.432702932978341 13.914610307843322 a36.775343194651725,36.775343194651725 0 0,0 -0.5557930959849662,-0.3030627106941599 l 7.671118840831947 -13.784606945389397" fill="#ffcb12" stroke="none" /><line stroke="#e1ed5e" stroke-width="0.3" x1="58.666819895761336" x2="56.23545636021788" y1="174.27360380694188" y2="178.64263932499728" /><path d="M 58.180547188652646 175.14741091055294 a86.0,86.0 0 0,1 -31.652253787137756,-30.449443065178592" fill="none" id="id116" stroke="none" /><text fill="#e1ed5e" style="font-size:6.75px; font-family:Arial;" text-anchor="middle"><textPath startOffset="22.20632615414155" xlink:href="#id116">August</textPath></text><path d="M 89.7882731507175 118.34994917583269 l -5.027025135161758 9.033306226980915 a31.33787227140867,31.33787227140867 0 0,0 -0.4690999424087154,-0.2663671900561237 l 5.181773844491681 -8.945435871130158" fill="#ff840c" stroke="none" /><path d="M 89.4739219176387 118.17145234162733 l -5.952808566085314 10.276493895548269 a32.87612127799727,32.87612127799727 0 0,0 -0.48724310560381895,-0.2878718151448561 l 6.1288195427175145 -10.172503508109664" fill="#ff980e" stroke="none" /><path d="M 89.1626897886671 117.98757091392108 l -6.732542959106565 11.174552683867004 a34.045986447207994,34.045986447207994 0 0,0 -0.4993748564077515,-0.3067568235245945 l 6.9238970154466255 -11.057007393514033" fill="#ffa80f" stroke="none" /><path d="M 88.8546689885994 117.79835938074946 l -6.223667791063764 9.93878745265079 a32.726616596550485,32.726616596550485 0 0,0 -0.4748759825905767,-0.3030883200687853 l 6.393825575701264 -9.830184703758201" fill="#ff960d" stroke="none" /><path d="M 88.54995079064634 117.60387380957326 l -6.425200438270054 9.8784219743022 a32.78415976530878,32.78415976530878 0 0,0 -0.47041413418280437,-0.3117648372376448 l 6.594289271192821 -9.766359115973236" fill="#ff970d" stroke="none" /><path d="M 87.65650970185807 116.9893568818739 l -6.671196743045348 9.182114585033798 a32.349717804294045,32.349717804294045 0 0,0 -0.4476816284117148,-0.3311841661428218 l 6.828263341875627 -9.065920470151209" fill="#ff910d" stroke="none" /><path d="M 87.36589467227662 116.77436683061367 l -7.521135759920432 9.985850754537415 a33.50138785939583,33.50138785939583 0 0,0 -0.45764693964084513,-0.35090415824997 l 7.691911428054763 -9.854907254460079" fill="#ffa10e" stroke="none" /><path d="M 87.07902340077011 116.55440617244103 l -7.554977360001048 9.679466786474014 a33.27883382820136,33.27883382820136 0 0,0 -0.4485392650560244,-0.3563467194962521 l 7.7204741177744305 -9.547986152972632" fill="#ff9e0e" stroke="none" /><path d="M 86.79598089348748 116.32954008644616 l -7.487326428292249 9.259650115986453 a32.90802995101589,32.90802995101589 0 0,0 -0.4374101985749808,-0.35995881469249724 l 7.645606755411919 -9.129396182436777" fill="#ff990e" stroke="none" /><path d="M 86.51685102203217 116.09983520530335 l -9.510164313033295 11.355810016294118 a35.81207772012616,35.81207772012616 0 0,0 -0.46919709220534866,-0.399859940990935 l 9.704226881815702 -11.19042568508023" fill="#ffbf11" stroke="none" /><path d="M 86.24171649860922 115.8653595955263 l -0.5908646638235798 0.6813553713225372 a21.901868168295913,21.901868168295913 0 0,0 -0.28269851679278063,-0.24944857227669198 l 0.6025055335229482 -0.6710836572735565" fill="#ff0000" stroke="none" /><path d="M 85.70375840098266 115.38237550388516 l -7.714321373307993 8.300404501419948 a32.331701952393075,32.331701952393075 0 0,0 -0.4043990245738153,-0.3823845190489717 l 7.856056232272626 -8.166385345625045" fill="#ff910d" stroke="none" /><path d="M 85.44109423537348 115.13401014063109 l -8.796476359613632 9.143953850684838 a33.688179080100326,33.688179080100326 0 0,0 -0.4144448890341282,-0.4056215530061623 l 8.952571201023554 -8.991182194756107" fill="#ffa30f" stroke="none" /><path d="M 85.18274418774928 114.88116024355367 l -8.510381473434144 8.547085374286095 a33.06147840103801,33.06147840103801 0 0,0 -0.3998224947365524,-0.4050180762723792 l 8.65624459322623 -8.399326804033052" fill="#ff9b0e" stroke="none" /><path d="M 84.9287848128048 114.62390073753433 l -4.314099190664278 4.186056502580709 a27.011199619850302,27.011199619850302 0 0,0 -0.3209103497403735,-0.3364732187201103 l 4.385516091783609 -4.111176167278098" fill="#ff4906" stroke="none" /><path d="M 84.67929136418377 114.36230785411682 l -8.110582588735047 7.603217761307327 a32.11712508945327,32.11712508945327 0 0,0 -0.3746288169291463,-0.406585590686639 l 8.240257813659923 -7.462480915819344" fill="#ff8e0d" stroke="none" /><path d="M 84.19399662182784 113.82643327865904 l -14.658288757325744 12.822460342022245 a40.475135904939805,40.475135904939805 0 0,0 -0.45420328343522764,-0.5283410317187333 l 14.87683455033175 -12.56824221114198" fill="#fff917" stroke="none" /><path d="M 83.95833913139862 113.55231037782056 l -8.693815583796674 7.344706269770319 a32.38099905958477,32.38099905958477 0 0,0 -0.35604296239532185,-0.42887668437301857 l 8.818954546085532 -7.19396832828354" fill="#ff920d" stroke="none" /><path d="M 83.72743513129214 113.27417163493432 l -9.023287367048416 7.360650652674053 a32.64469376750829,32.64469376750829 0 0,0 -0.3514466917756163,-0.4384837853893024 l 9.148651970878893 -7.204239033706491" fill="#ff950d" stroke="none" /><path d="M 83.50135304334701 112.99209946851258 l -4.643617950674017 3.6566844825174893 a26.910543890075274,26.910543890075274 0 0,0 -0.2834489930208863,-0.3663960327882702 l 4.705873760912972 -3.5762104556159664" fill="#ff4806" stroke="none" /><path d="M 83.28015986056508 112.70617746262583 l -10.794186696513268 8.203000183424473 a34.557421526545745,34.557421526545745 0 0,0 -0.35584062177067866,-0.4767066635051472 l 10.933788584979032 -8.015980640410017" fill="#ffae10" stroke="none" /><path d="M 83.06392112726016 112.41649034213515 l -9.405307713690359 6.89539256809999 a32.66217183278535,32.66217183278535 0 0,0 -0.3285195579040241,-0.4562849327961727 l 9.522607063969991 -6.732474029852679" fill="#ff960d" stroke="none" /><path d="M 82.85270091963577 112.12312394758628 l -3.8539651332426117 2.724749640220519 a25.719884304740063,25.719884304740063 0 0,0 -0.2524701723082851,-0.3637021133253178 l 3.9002962127130307 -2.658006264708188" fill="#ff3705" stroke="none" /><path d="M 82.6465618267979 111.8261652097733 l -5.941435676621303 4.04901894331637 a28.189938268355526,28.189938268355526 0 0,0 -0.26981381193346066,-0.40333504002178666 l 6.010252593965494 -3.9461469890887626" fill="#ff5908" stroke="none" /><path d="M 82.24976979558568 111.22182372390057 l -10.134799327476433 6.407293326357124 a32.99031130447401,32.99031130447401 0 0,0 -0.29932480246972687,-0.48260688867316254 l 10.243588769614115 -6.231890106318697" fill="#ff9a0e" stroke="none" /><path d="M 82.05923443525364 110.91462005526583 l -9.884151168252354 6.013219122726521 a32.569582902368964,32.569582902368964 0 0,0 -0.2872623630500295,-0.4814682437721018 l 9.986194407000614 -5.842188785068308" fill="#ff940d" stroke="none" /><line stroke="#e1ed5e" stroke-width="0.3" x1="26.63291911575756" x2="22.317208475507996" y1="142.92168965132927" y2="145.44649492493687" /><path d="M 25.769776987707644 143.4266507060508 a86.0,86.0 0 0,1 -11.730757126820373,-40.83630448921669" fill="none" id="id117" stroke="none" /><text fill="#e1ed5e" style="font-size:6.75px; font-family:Arial;" text-anchor="middle"><textPath startOffset="21.46611528233685" xlink:href="#id117">September</textPath></text><path d="M 81.87401531095188 110.60418214915194 l -5.079281124862242 2.9715142740538782 a26.884640501023643,26.884640501023643 0 0,0 -0.23024518706047883,-0.4014518910645237 l 5.129678308075098 -2.8836425371310477" fill="#ff4706" stroke="none" /><path d="M 81.02952815118164 109.00673069616217 l -7.583454764982178 3.6004446994805046 a29.39475956812035,29.39475956812035 0 0,0 -0.21307754943610907,-0.45895008521668346 l 7.644306931258114 -3.469374546984994" fill="#ff6a09" stroke="none" /><path d="M 80.87730276802145 108.67885076344099 l -5.478315223662177 2.4863375539796473 a27.01612933056947,27.01612933056947 0 0,0 -0.18854545759274835,-0.42512023232453106 l 5.520301765986205 -2.39166898516242" fill="#ff4906" stroke="none" /><path d="M 80.58989483394504 108.01547362559985 l -4.71546581546527 1.9472687836014242 a26.10171280771567,26.10171280771567 0 0,0 -0.16791776970127836,-0.41675813356250513 l 4.748286199423936 -1.8658112821961137" fill="#ff3c05" stroke="none" /><path d="M 79.86692584326677 105.97154293290107 l -11.157358706172449 3.3093131239177414 a32.63779217250146,32.63779217250146 0 0,0 -0.15511866545698685,-0.5399884241128688 l 11.21267000851554 -3.116767224300277" fill="#ff950d" stroke="none" /><path d="M 79.76711848015287 105.62410040840567 l -11.053686902365113 3.072574954832721 a32.47278131006529,32.47278131006529 0 0,0 -0.14506352767762304,-0.5398353514453187 l 11.104938506384512 -2.8818486702118635" fill="#ff930d" stroke="none" /><path d="M 79.58551787078972 104.9243191809786 l -61.24344638763086 14.772957542935808 a84.0,84.0 0 0,0 -0.32695773627777935,-1.408525370605703 l 61.4886646898392 -13.716563514981532" fill="#4dd2ff" stroke="none" /><path d="M 79.50377843672027 104.57218783832718 l -11.480818768134451 2.5610798450650183 a32.76300682476834,32.76300682476834 0 0,0 -0.11804973360351449,-0.5514890546156914 l 11.523202540462407 -2.363076971033163" fill="#ff970d" stroke="none" /><path d="M 79.4281124754447 104.21870165774334 l -11.688010379414912 2.396874312311066 a32.931244406947975,32.931244406947975 0 0,0 -0.1090966133612419,-0.556281281139761 l 11.72753692575182 -2.19532930410335" fill="#ff990e" stroke="none" /><path d="M 79.35854240842038 103.8639653848113 l -11.43345648208913 2.1402790902499382 a32.63205578184643,32.63205578184643 0 0,0 -0.09860095395924776,-0.5530065132279508 l 11.468603878387565 -1.943153826288774" fill="#ff950d" stroke="none" /><path d="M 79.29508885075956 103.50808413554451 l -11.250060859275914 1.90612554383185 a32.41039806169181,32.41039806169181 0 0,0 -0.0884622455880189,-0.5508544877204102 l 11.281204859225223 -1.712191826418226" fill="#ff920d" stroke="none" /><path d="M 79.23777060512086 103.15116336523772 l -11.713209145726218 1.7777587776042754 a32.84734969361812,32.84734969361812 0 0,0 -0.08003170565064747,-0.5597415629192594 l 11.742074902393465 -1.5758717427046156" fill="#ff980e" stroke="none" /><path d="M 79.1416061653843 102.43462659150553 l -29.991317370957535 3.5006366916151532 a51.19492631042807,51.19492631042807 0 0,0 -0.09463186734257444,-0.8761735627050187 l 30.04713153980116 -2.9838668070253522" fill="#8aff24" stroke="none" /><path d="M 79.07016306316243 101.71520430193888 l -5.947164445616075 0.48737130978335874 a26.967101116689737,26.967101116689737 0 0,0 -0.03393160068332324,-0.46296973254165974 l 5.954672604963733 -0.38492844074493837" fill="#ff4806" stroke="none" /><path d="M 79.04373962182676 101.35467743843564 l -12.112831258178925 0.783010848544504 a33.13811299494509,33.13811299494509 0 0,0 -0.03189724706329278,-0.5695467736737078 l 12.12451485612975 -0.5743923585353586" fill="#ff9c0e" stroke="none" /><path d="M 79.0235259727143 100.99374915477108 l -11.762989923222845 0.5572653096310678 a32.776182597054124,32.776182597054124 0 0,0 -0.0218474595065879,-0.5637858528609437 l 11.770839515580633 -0.3547022097561272" fill="#ff970d" stroke="none" /><path d="M 79.0095281055655 100.63252640178507 l -11.56370642611058 0.34846046595770136 a32.568955484641066,32.568955484641066 0 0,0 -0.012062823532110516,-0.5605120095822487 l 11.567991312327699 -0.14935864058532386" fill="#ff940d" stroke="none" /><line stroke="#e1ed5e" stroke-width="0.3" x1="15.007084014347285" x2="10.007500721073583" y1="101.09737516637583" y2="101.16192664675087" /><path d="M 14.007167355692545 101.11028546245083 a86.0,86.0 0 0,1 10.666146001902534,-42.60595125391555" fill="none" id="id118" stroke="none" /><text fill="#e1ed5e" style="font-size:6.75px; font-family:Arial;" text-anchor="middle"><textPath startOffset="22.20632615414155" xlink:href="#id118">October</textPath></text><path d="M 79.00486145842228 99.54816195383935 l -4.996404539300743 -0.10752801942197585 a25.997561464885237,25.997561464885237 0 0,0 0.013479494887515151,-0.44731881197222045 l 4.993813349957582 0.1935169788191907" fill="#ff3b05" stroke="none" /><path d="M 79.03285615573316 98.82574320788736 l -1.336546129348176 -0.07485274971240792 a22.338640538014257,22.338640538014257 0 0,0 0.024805899767207148,-0.3837362900475651 l 1.3350596385765556 0.09784810401298481" fill="#ff0601" stroke="none" /><path d="M 79.26566170972629 96.67025291283419 l -9.254508340816226 -1.4861902878009685 a30.37308306811537,30.37308306811537 0 0,0 0.08734161649405335,-0.5154951646733434 l 9.22755486280195 1.64527124079014" fill="#ff770b" stroke="none" /><path d="M 79.32604984820605 96.31383870115002 l -11.320948168643877 -2.018522860853495 a32.499491379052785,32.499491379052785 0 0,0 0.10293714963692328,-0.5498943694425514 l 11.284525295097092 2.213095307758619" fill="#ff930d" stroke="none" /><path d="M 79.3925641242962 95.95851677861259 l -11.726765962790653 -2.299826536674194 a32.95015656988879,32.95015656988879 0 0,0 0.11394588427697577,-0.5556405987916676 l 11.685440782598683 2.501342791629264" fill="#ff990e" stroke="none" /><path d="M 79.46518482838121 95.60439243477599 l -11.730841217062974 -2.5110610428785622 a32.99658548175296,32.99658548175296 0 0,0 0.1236674517705254,-0.5543769375368247 l 11.68587937829041 2.712616149965346" fill="#ff9a0e" stroke="none" /><path d="M 79.54389044137918 95.25157060432595 l -15.762718472234786 -3.658963378877225 a37.18182025122317,37.18182025122317 0 0,0 0.15008565637628177,-0.6222019404793114 l 15.697400015597688 3.9297505510159336" fill="#ffd013" stroke="none" /><path d="M 79.71946130924805 94.55025226153421 l -14.26393165568959 -3.832976552919299 a35.76995110125327,35.76995110125327 0 0,0 0.1649049753712233,-0.5932509355154124 l 14.195839909752005 4.077938791853654" fill="#ffbe11" stroke="none" /><path d="M 79.81627453868168 94.20196356495316 l -14.171891009390862 -4.071059160185094 a35.74503365434547,35.74503365434547 0 0,0 0.17497041272429933,-0.5899132492548621 l 14.099714699554855 4.314401796186495" fill="#ffbe11" stroke="none" /><path d="M 79.91906864156998 93.8553929516997 l -14.278073844944585 -4.368978291784667 a35.931555981738015,35.931555981738015 0 0,0 0.18606474631856199,-0.5898760926068644 l 14.200753614857819 4.614104550817946" fill="#ffc011" stroke="none" /><path d="M 80.02781315780177 93.51064311812611 l -11.393660610294084 -3.7020247444775816 a32.98000372751575,32.98000372751575 0 0,0 0.1800750704197138,-0.5384015401673559 l 11.328248246102598 3.8975993875672597" fill="#ff9a0e" stroke="none" /><path d="M 80.14247586403 93.16781622104843 l -11.084578057731111 -3.813762173169009 a32.72231430355921,32.72231430355921 0 0,0 0.18783686562224594,-0.5310401134984493 l 11.017288111299056 4.003999913094069" fill="#ff960d" stroke="none" /><path d="M 80.52162464483688 92.15188598940014 l -11.190516899616197 -4.508818156769564 a33.06470512078147,33.06470512078147 0 0,0 0.2172482017224124,-0.5260837524436051 l 11.111247011007585 4.70077647966648" fill="#ff9b0e" stroke="none" /><path d="M 80.65960295795068 91.81776055985345 l -11.070385912745657 -4.683489591034383 a33.02033772430895,33.02033772430895 0 0,0 0.22596806167216144,-0.521565441390127 l 10.988127141230814 4.873354177011109" fill="#ff9a0e" stroke="none" /><path d="M 80.803312248108 91.48605970444005 l -11.392554849804549 -5.052722274735547 a33.46275685357834,33.46275685357834 0 0,0 0.23805992104492044,-0.5245334799841496 l 11.303892611796277 5.248077763561768" fill="#ffa00e" stroke="none" /><line stroke="#e1ed5e" stroke-width="0.3" x1="26.266209847984243" x2="21.928928074336255" y1="57.711370442889674" y2="55.22380399835377" /><path d="M 25.398753493254645 57.213857153982495 a86.0,86.0 0 0,1 29.58750427330803,-30.492523968695096" fill="none" id="id119" stroke="none" /><text fill="#e1ed5e" style="font-size:6.75px; font-family:Arial;" text-anchor="middle"><textPath startOffset="21.46611528233685" xlink:href="#id119">November</textPath></text><path d="M 81.78341655067845 89.55222093294921 l -10.397961693422788 -5.963555505496536 a32.98672606031462,32.98672606031462 0 0,0 0.2867337006289546,-0.49012084046955046 l 10.29376831832351 6.1416557583199785" fill="#ff9a0e" stroke="none" /><path d="M 81.96595687620814 89.24020034530311 l -10.177386712319755 -6.072218042357095 a32.85120383108947,32.85120383108947 0 0,0 0.2939153431971913,-0.48311954438017374 l 10.071355570836348 6.246505359944344" fill="#ff980e" stroke="none" /><path d="M 82.15384107792192 88.93136811851018 l -12.404367851539611 -7.693497635584824 a35.59651491504252,35.59651491504252 0 0,0 0.32744115959072406,-0.5179332793079644 l 12.270099095702925 7.905878562607003" fill="#ffbc11" stroke="none" /><path d="M 82.34701348167596 88.62581576622439 l -9.391597484707383 -6.051200454361807 a32.172248218403965,32.172248218403965 0 0,0 0.3039562997443573,-0.46294629775373164 l 9.286044549605105 6.211964816093206" fill="#ff8f0d" stroke="none" /><path d="M 82.7489923806493 88.02491185347247 l -13.910445851338473 -9.656178868092459 a37.933466689240426,37.933466689240426 0 0,0 0.37696360881592555,-0.5331882912957481 l 13.74216962271867 9.894193659719994" fill="#ffd914" stroke="none" /><path d="M 82.95767976084542 87.72973835380427 l -12.28207682965462 -8.842944748350556 a36.134301538951824,36.134301538951824 0 0,0 0.36777386712286475,-0.501643141443007 l 12.128040350018123 9.053050333465062" fill="#ffc312" stroke="none" /><path d="M 83.17141714833178 87.43820079747576 l -13.322593175060039 -9.944731638851813 a37.624956429324456,37.624956429324456 0 0,0 0.3918801532910887,-0.5156683460558394 l 13.149437081544841 10.17258476078868" fill="#ffd513" stroke="none" /><path d="M 83.39014120810768 87.1503855733568 l -4.745954137997322 -3.6715351722053793 a27.000354256268132,27.000354256268132 0 0,0 0.28754852628245586,-0.3651574273686834 l 4.682051531120895 3.7526849935271103" fill="#ff4906" stroke="none" /><line stroke="#e1ed5e" stroke-width="0.3" x1="56.762969772571076" x2="54.21961505331055" y1="26.818313649435495" y2="22.513508569990535" /><path d="M 56.25429882871897 25.957352633546506 a86.0,86.0 0 0,1 42.265352541879196,-11.944610805530505" fill="none" id="id120" stroke="none" /><text fill="#e1ed5e" style="font-size:6.75px; font-family:Arial;" text-anchor="middle"><textPath startOffset="22.20632615414155" xlink:href="#id120">December</textPath></text></svg>